<?xml version="1.0" encoding="UTF-8" standalone="no"?>
<svg xmlns:xlink="http://www.w3.org/1999/xlink" height="68.55px" width="133.55px" 
  xmlns="http://www.w3.org/2000/svg">
  <g transform="matrix(1.0, 0.0, 0.0, 1.0, 0.0, 34.25)">
    <path d="M30.8 -28.1 Q44.8 -31.65 58.6 -34.25 91.3 -32.55 122.75 -25.95 126.4 -25.2 128.2 -21.45 143.2 9.4 116.2 27.95 112.15 30.7 107.05 31.5 64.55 38.1 23.55 29.05 14.1 27.0 12.6 17.5 -11.1 2.35 9.8 -16.65 19.15 -25.15 30.8 -28.1 M34.0 7.0 Q30.35 5.15 27.75 1.15 L26.35 -1.2 Q23.85 -5.9 21.0 -9.0 19.85 -8.3 19.4 -5.9 18.55 -1.4 18.2 3.3 18.55 -1.4 19.4 -5.9 19.85 -8.3 21.0 -9.0 23.85 -5.9 26.35 -1.2 L27.75 1.15 Q30.35 5.15 34.0 7.0 M25.0 1.0 L24.0 0.9 Q19.25 -0.2 18.2 3.3 L18.15 4.0 18.2 3.3 Q19.25 -0.2 24.0 0.9 L25.0 1.0 M47.0 2.0 Q44.5 2.5 42.1 3.3 L40.9 3.65 Q37.0 4.5 35.6 1.15 32.7 -5.75 33.0 -14.0 32.7 -5.75 35.6 1.15 37.0 4.5 40.9 3.65 L42.1 3.3 Q44.5 2.5 47.0 2.0 M97.95 -11.0 L96.95 -11.0 Q95.95 -11.0 95.4 -10.5 92.75 -8.15 89.95 -8.0 92.75 -8.15 95.4 -10.5 95.95 -11.0 96.95 -11.0 L97.95 -11.0 M98.95 -3.0 L98.6 -9.95 98.5 -12.95 Q98.65 -16.2 95.05 -17.8 94.45 -17.5 93.95 -17.0 92.45 -15.5 91.35 -13.75 89.95 -11.5 88.95 -9.0 L84.95 1.0 88.95 -9.0 Q89.95 -11.5 91.35 -13.75 92.45 -15.5 93.95 -17.0 94.45 -17.5 95.05 -17.8 98.65 -16.2 98.5 -12.95 L98.6 -9.95 98.95 -3.0 M80.95 -20.0 L79.9 -20.55 Q72.75 -21.5 68.95 -17.0 72.75 -21.5 79.9 -20.55 L80.95 -20.0 M77.95 -18.0 Q77.95 -12.5 78.4 -7.05 78.75 -3.2 76.95 -2.0 78.75 -3.2 78.4 -7.05 77.95 -12.5 77.95 -18.0 M66.95 -8.0 L66.15 -9.1 Q63.45 -14.9 64.0 -22.0 63.45 -14.9 66.15 -9.1 L66.95 -8.0 M48.0 -15.0 Q50.5 -17.95 56.0 -16.9 59.75 -16.15 58.65 -12.1 57.85 -9.35 55.75 -7.25 55.0 -6.5 54.1 -6.65 49.55 -7.35 49.25 -12.0 49.0 -15.7 51.0 -12.0 49.0 -15.7 49.25 -12.0 49.55 -7.35 54.1 -6.65 55.0 -6.5 55.75 -7.25 57.85 -9.35 58.65 -12.1 59.75 -16.15 56.0 -16.9 50.5 -17.95 48.0 -15.0 M18.15 4.0 L17.9 8.0 Q17.8 12.15 19.0 10.0 17.8 12.15 17.9 8.0 L18.15 4.0" fill="#ffffff" fill-rule="evenodd" stroke="none"/>
    <path d="M18.2 3.3 Q18.55 -1.4 19.4 -5.9 19.85 -8.3 21.0 -9.0 23.85 -5.9 26.35 -1.2 L27.75 1.15 Q30.35 5.15 34.0 7.0 M19.0 10.0 Q17.8 12.15 17.9 8.0 L18.15 4.0" fill="none" stroke="#000000" stroke-linecap="round" stroke-linejoin="round" stroke-width="2.75"/>
    <path d="M51.0 -12.0 Q49.0 -15.7 49.25 -12.0 49.55 -7.35 54.1 -6.65 55.0 -6.5 55.75 -7.25 57.85 -9.35 58.65 -12.1 59.75 -16.15 56.0 -16.9 50.5 -17.95 48.0 -15.0 M64.0 -22.0 Q63.45 -14.9 66.15 -9.1 L66.95 -8.0 M76.95 -2.0 Q78.75 -3.2 78.4 -7.05 77.95 -12.5 77.95 -18.0 M68.95 -17.0 Q72.75 -21.5 79.9 -20.55 L80.95 -20.0 M84.95 1.0 L88.95 -9.0 Q89.95 -11.5 91.35 -13.75 92.45 -15.5 93.95 -17.0 94.45 -17.5 95.05 -17.8 98.65 -16.2 98.5 -12.95 L98.6 -9.95 98.95 -3.0 M89.95 -8.0 Q92.75 -8.15 95.4 -10.5 95.95 -11.0 96.95 -11.0 L97.95 -11.0 M33.0 -14.0 Q32.7 -5.75 35.6 1.15 37.0 4.5 40.9 3.65 L42.1 3.3 Q44.5 2.5 47.0 2.0 M18.15 4.0 L18.2 3.3 Q19.25 -0.2 24.0 0.9 L25.0 1.0" fill="none" stroke="#000000" stroke-linecap="round" stroke-linejoin="round" stroke-width="2.75"/>
  </g>
</svg>
