<?xml version="1.0" encoding="UTF-8" standalone="no"?>
<svg xmlns:xlink="http://www.w3.org/1999/xlink" height="79.7px" width="141.1px" xmlns="http://www.w3.org/2000/svg">
  <g transform="matrix(1.0, 0.0, 0.0, 1.0, -7.25, -59.65)">
    <path d="M108.0 61.0 Q109.1 67.75 109.0 75.0 L109.0 76.0 M99.0 63.0 Q97.3 63.8 97.6 67.05 98.0 72.0 98.0 77.0 M86.0 62.0 Q87.05 69.7 88.9 77.05 M89.0 75.0 Q89.3 73.3 92.05 73.45 92.5 73.5 93.0 73.0 L94.0 72.0 M39.0 85.0 Q38.0 86.0 36.85 86.5 L38.05 86.45 40.05 86.1 Q42.65 85.1 44.8 83.35 L44.6 82.05 Q43.8 77.3 48.0 78.0 M29.0 81.0 Q27.4 79.9 28.25 80.75 L29.0 81.0 M33.8 88.05 Q34.35 87.3 35.1 86.9 L34.0 86.95 33.6 86.95 33.8 88.05 34.25 89.95 34.95 92.05 Q35.85 94.3 37.0 95.0 M33.0 89.0 Q31.0 86.95 33.6 86.95 32.1 79.65 32.0 72.0 M36.85 86.5 L35.1 86.9 M50.0 68.0 Q51.7 72.5 51.55 78.0 L51.6 81.05 Q51.95 85.25 53.0 89.0 M48.0 80.0 L44.8 83.35 45.35 86.95 Q45.5 88.0 46.0 89.0 L47.0 91.0 M66.05 79.15 Q63.7 80.0 62.2 81.05 65.25 81.65 66.45 80.5 L67.75 79.55 Q69.75 78.4 71.95 77.8 L72.95 77.5 72.7 75.05 Q72.3 70.5 74.0 67.0 M80.0 65.0 Q77.7 70.3 79.55 76.15 80.0 77.5 80.0 79.0 L80.0 80.0 M74.05 77.15 L72.95 77.5 73.4 81.95 Q73.5 83.0 74.0 84.0 M61.0 82.0 L61.8 81.35 Q61.15 73.4 60.0 66.0 M62.2 81.05 L61.8 81.35 61.9 83.0 62.0 85.0 M57.0 116.0 Q64.2 112.75 72.05 111.2 L74.0 111.0 M39.0 124.0 L39.0 126.0 Q39.0 133.55 45.95 134.3 48.85 134.65 49.6 132.2 L50.6 129.8 Q51.0 129.0 51.0 128.0 L51.0 120.0 M64.0 134.0 Q65.95 131.65 64.4 128.8 64.0 128.0 63.95 127.0 63.7 119.85 61.0 115.0 M10.0 118.0 Q7.65 115.35 9.25 118.9 12.25 125.8 13.5 133.65 16.3 125.95 22.95 119.95 L26.15 117.2 28.0 116.0 M13.5 133.65 L14.0 138.0 M13.0 135.0 L13.5 133.65 M19.0 130.0 Q19.3 131.7 22.05 131.55 L24.05 131.8 Q28.55 133.0 32.0 137.0 M137.0 106.0 Q139.85 108.1 143.2 106.4 L144.85 106.0 Q143.3 101.05 141.3 96.25 134.3 104.4 135.0 117.0 M144.85 106.0 L145.0 106.0 146.0 106.0 M144.85 106.0 L145.15 106.95 Q145.85 109.3 147.0 110.0 M117.0 124.0 L116.6 117.95 Q116.5 116.0 117.0 114.0 118.8 106.55 122.0 100.0 126.85 102.55 126.55 109.05 126.5 110.5 126.95 112.0 L128.0 117.0 M120.0 112.0 Q121.3 110.3 125.0 110.9 L126.0 111.0 M93.0 102.0 Q99.6 98.85 108.05 99.75 L113.0 100.0 M98.0 120.0 Q98.4 114.75 99.8 109.95 L101.1 106.05 102.3 102.1 Q102.5 101.5 103.0 101.0 M107.0 100.0 Q108.65 108.75 109.45 117.95 109.5 118.5 110.0 119.0 M82.0 106.0 Q79.85 116.8 81.85 128.05 L82.0 130.0" fill="none" stroke="#000000" stroke-linecap="round" stroke-linejoin="round" stroke-width="2.75"/>
  </g>
</svg>
