<?xml version="1.0" encoding="UTF-8" standalone="no"?>
<svg xmlns:xlink="http://www.w3.org/1999/xlink" height="339.7px" width="519.55px" xmlns="http://www.w3.org/2000/svg">
  <g transform="matrix(1.0, 0.0, 0.0, 1.0, 8.25, -24.65)">
    <path d="M467.95 121.0 Q476.4 108.7 478.5 93.05 478.95 89.5 479.85 85.95 482.15 76.6 478.9 68.45 469.35 65.75 459.95 64.0 465.6 62.15 471.95 62.05 473.45 62.0 474.65 62.6 476.45 63.5 477.4 65.3 L478.9 68.45 480.0 68.75 Q489.7 71.5 499.95 71.15 504.95 71.0 509.95 71.0 M428.95 242.0 Q428.35 222.65 434.4 204.15 435.45 201.0 437.35 198.25 439.95 194.45 442.85 196.15 447.95 199.05 450.3 204.85 454.6 215.55 464.15 221.7 472.15 226.8 480.95 223.95 496.15 218.95 502.05 203.65 503.45 200.0 503.85 196.0 505.2 182.85 499.95 171.0 M402.95 107.0 Q403.45 112.85 409.0 115.9 424.3 124.2 440.05 116.2 442.35 115.05 443.4 112.75 443.95 111.5 443.45 110.2 442.95 109.0 441.85 108.1 434.65 102.3 428.65 95.25 420.9 86.1 419.0 74.0 417.15 62.1 426.95 55.0 433.65 50.15 440.95 53.0 M459.95 50.0 Q454.2 66.35 455.9 85.0 457.5 103.05 461.95 120.0 M396.95 32.0 Q398.85 35.2 396.6 39.35 395.45 41.5 394.75 43.95 389.65 61.0 390.55 79.0 391.2 92.6 390.4 106.05 389.95 113.5 389.95 121.0 M339.0 54.0 Q339.8 51.6 339.1 55.0 338.4 58.25 339.4 61.2 340.5 64.5 340.85 68.0 342.5 85.05 349.45 100.8 351.25 104.85 355.0 104.6 358.3 104.4 359.35 101.1 L360.7 96.9 Q367.15 78.85 370.95 60.0 M341.0 162.0 Q344.95 162.15 342.5 166.3 341.5 168.0 340.8 169.9 334.1 188.1 337.95 206.8 338.5 209.5 339.65 212.15 343.65 221.6 354.0 222.3 L359.95 222.25 Q363.5 222.0 366.85 220.8 375.5 217.7 381.95 211.0 M403.95 155.0 Q404.45 155.5 404.15 157.05 400.35 175.1 399.65 194.0 399.35 202.35 401.75 210.05 402.85 213.65 405.95 215.0 M301.0 181.0 Q298.35 180.55 297.5 183.9 L296.25 188.1 Q293.35 196.25 292.55 204.95 L291.1 219.0 Q289.9 229.8 294.85 238.5 296.0 240.5 298.25 241.3 301.5 242.5 305.0 242.55 316.2 242.65 326.1 237.15 333.05 233.3 339.0 228.0 M297.0 35.0 Q297.95 33.2 298.15 31.0 298.3 28.8 300.95 28.55 L302.1 28.3 304.0 28.0 M315.0 26.0 Q317.8 26.2 318.0 30.0 L318.0 31.0 M227.0 32.0 Q225.2 35.45 225.4 40.0 L225.35 46.0 Q225.0 53.5 225.3 61.0 225.65 70.1 224.7 79.05 L224.4 82.05 Q233.55 81.25 243.1 78.35 247.5 77.0 251.95 75.9 260.3 73.85 268.45 71.45 268.55 56.1 270.0 41.0 M270.0 71.0 L268.45 71.45 268.45 78.0 Q268.5 84.0 268.05 90.0 266.65 108.85 269.75 127.05 L270.0 130.0 M280.0 125.0 Q280.0 113.9 285.5 103.7 287.5 100.0 288.9 95.95 293.6 82.6 300.3 70.15 301.5 68.0 303.4 66.5 304.0 66.0 304.65 66.5 306.0 67.5 306.75 69.1 312.3 81.45 313.55 94.95 314.0 99.5 314.7 104.05 316.65 116.15 322.0 127.0 L323.25 128.75 M293.0 91.0 Q292.75 86.25 296.25 88.65 297.5 89.5 299.05 89.85 303.0 90.7 306.0 89.0 M96.0 92.0 Q95.4 87.7 98.6 85.45 L101.15 83.15 Q114.4 67.5 133.9 61.75 154.2 55.75 168.0 72.0 L173.2 77.8 Q179.7 84.45 183.0 93.0 M231.0 119.0 Q227.8 121.25 226.8 118.05 223.0 105.75 223.7 92.0 L223.95 88.0 223.95 87.75 Q223.05 84.05 221.7 82.25 L224.4 82.05 223.95 87.75 M168.0 148.0 Q168.7 145.7 171.7 144.35 172.5 144.0 173.0 143.0 175.55 138.15 169.85 136.4 L167.0 136.0 159.0 136.0 M95.0 98.0 Q91.85 97.05 94.9 93.9 103.9 84.8 116.15 80.45 128.35 76.1 140.9 79.4 145.0 80.5 148.85 82.3 166.4 90.4 175.85 107.1 177.7 110.4 178.2 113.95 L179.0 118.0 Q179.8 121.3 178.0 122.0 M167.0 241.0 Q168.0 244.85 168.65 248.8 L168.9 248.7 Q175.55 246.65 180.95 241.95 196.05 228.85 198.15 209.0 198.5 205.5 198.5 202.0 198.5 198.5 197.55 195.15 192.15 176.2 177.05 163.95 168.35 156.95 158.0 155.0 M254.0 271.0 Q240.65 257.1 239.7 235.95 239.5 231.5 240.15 227.0 L240.35 225.6 235.0 226.0 Q236.6 224.55 240.8 223.15 243.9 206.2 253.75 191.8 256.0 188.5 258.5 185.4 260.5 183.0 263.15 181.25 268.3 177.95 271.1 182.95 L273.65 188.15 Q278.3 198.65 272.95 209.0 267.75 219.05 256.1 221.4 253.0 222.0 250.05 223.15 245.3 224.95 240.35 225.6 L240.8 223.15 M296.0 185.0 Q290.0 182.4 284.15 180.55 286.05 176.6 291.0 175.1 305.25 170.75 320.0 168.0 M93.0 102.0 Q89.25 99.3 85.5 94.35 L83.15 91.8 Q75.5 85.1 64.95 86.65 L60.1 87.5 Q57.5 88.0 55.0 89.05 42.2 94.5 33.75 105.8 L28.35 113.25 Q26.0 116.5 23.85 119.9 18.2 128.95 14.25 138.1 13.5 139.9 14.65 141.3 18.45 145.75 25.0 148.0 M93.0 94.0 Q88.8 88.3 86.0 82.0 80.1 68.75 66.0 70.15 52.05 71.55 42.2 82.15 38.05 86.65 33.6 90.65 31.0 93.0 28.75 95.8 25.1 100.5 23.0 106.0 M48.0 129.0 Q46.7 127.3 43.05 128.25 39.65 129.1 38.2 132.1 34.2 140.15 33.9 150.0 33.5 163.05 46.05 164.65 56.8 166.0 64.7 158.7 66.5 157.0 67.95 155.0 75.55 144.55 68.25 133.85 L65.6 130.35 63.2 127.8 Q57.9 122.9 52.2 126.35 47.75 129.05 48.0 134.0 M57.7 145.8 Q57.65 140.95 59.8 138.8 61.65 136.9 63.65 139.3 64.85 140.75 64.8 142.35 65.5 140.3 65.5 138.0 L65.3 136.9 Q64.05 135.4 61.0 135.5 60.5 135.5 59.95 135.95 58.0 137.65 57.45 140.1 56.9 142.55 57.7 145.8 57.9 140.15 61.85 143.2 63.4 144.4 62.45 146.75 64.05 144.7 64.8 142.35 64.75 144.65 62.2 147.2 62.05 147.9 61.15 148.2 L60.1 149.15 59.5 149.6 Q64.75 147.9 65.95 142.0 66.65 138.5 65.3 136.9 65.0 136.0 64.5 135.5 64.0 135.0 63.1 134.7 L61.95 134.4 Q57.2 133.7 55.2 138.1 53.25 142.5 54.3 145.65 53.75 141.2 57.45 140.1 M59.0 146.0 L57.7 145.8 Q58.0 147.0 59.2 147.6 L61.65 147.65 62.45 146.75 62.2 147.2 61.65 147.65 61.15 148.2 60.85 148.25 Q56.8 149.2 57.7 145.8 M54.7 147.8 Q55.0 149.0 56.2 149.55 58.05 150.4 59.5 149.6 L58.95 149.75 57.35 149.55 Q55.0 147.9 54.3 145.65 L54.7 147.8 M27.0 252.0 Q15.35 254.75 5.2 246.75 3.0 245.0 1.1 242.9 -10.25 230.35 -5.5 214.15 0.15 194.7 17.9 185.8 L23.15 183.25 32.0 179.0 M26.0 178.0 Q22.0 176.3 17.0 176.6 13.3 176.8 11.9 173.05 L11.25 170.95 Q10.6 168.45 13.15 167.4 L23.0 163.0 M63.0 186.0 Q61.3 186.8 61.95 190.0 65.05 205.75 79.95 214.1 95.05 222.5 109.7 213.5 L116.15 209.25 Q127.7 200.95 135.15 189.1 L137.8 184.9 Q138.6 183.55 138.9 182.0 139.15 180.6 139.0 179.0 M61.0 196.0 Q60.0 194.05 57.25 196.3 54.75 198.3 53.0 201.0 L45.35 212.25 Q43.5 214.75 44.0 218.0 M124.0 121.0 Q125.75 118.8 128.45 117.4 126.8 116.0 124.3 118.3 119.95 122.2 118.65 127.9 117.3 133.7 118.55 139.9 119.0 142.0 119.9 144.05 123.85 152.9 132.95 152.15 135.0 152.0 137.0 151.0 149.7 144.45 153.35 130.85 154.0 128.5 154.1 126.0 154.25 120.0 148.2 117.55 141.8 115.0 135.05 115.4 L132.0 115.95 Q130.05 116.55 128.45 117.4 M137.6 128.25 L137.5 131.0 Q137.5 133.2 137.1 135.25 138.65 132.9 137.8 129.05 L137.6 128.25 Q136.7 125.7 134.5 128.4 134.2 128.75 134.05 129.3 L134.95 129.35 Q136.0 129.5 136.25 130.25 137.75 134.45 135.0 136.0 L134.75 135.6 Q133.5 135.5 133.1 134.9 L132.0 133.0 Q129.95 129.1 134.05 129.3 L133.85 130.0 Q133.4 133.2 134.75 135.6 M137.6 128.25 L137.6 127.95 Q137.9 124.7 134.1 125.4 L133.85 125.5 133.05 126.05 Q131.05 128.4 130.65 131.4 130.75 134.5 132.4 136.7 133.0 137.5 134.0 137.5 L135.1 137.15 Q136.4 136.35 137.1 135.25 L136.85 136.65 Q139.55 133.5 139.15 129.0 138.7 124.4 134.1 125.4 M131.0 126.0 Q126.8 126.1 127.65 131.05 L128.4 134.9 Q129.25 138.75 132.1 139.7 131.1 138.15 130.75 136.05 130.3 133.55 130.65 131.4 L130.6 131.0 Q130.5 126.45 133.85 125.5 M136.85 136.65 L136.7 136.75 Q136.0 137.5 135.7 138.25 134.85 140.65 132.1 139.7 133.1 141.5 134.9 140.75 L135.75 139.9 136.85 136.65 M71.0 138.0 Q74.15 133.15 81.95 131.85 L86.05 131.35 Q95.5 130.65 104.05 132.75 108.4 133.8 112.95 135.2 L115.0 136.0 M138.9 182.0 L148.25 189.7 Q153.0 193.85 154.95 199.0 L156.0 202.0 M136.0 216.0 L136.85 218.05 M109.0 224.0 Q108.5 226.5 108.5 229.0 M81.0 256.0 Q82.3 257.7 86.05 257.45 105.5 256.05 122.0 247.0 M49.0 269.0 Q49.05 265.8 47.35 270.15 L46.75 271.95 Q44.25 281.95 47.45 292.15 L49.45 298.85 51.8 306.05 Q54.35 313.05 59.3 318.75 61.8 321.55 64.9 322.4 69.25 323.65 73.85 322.45 75.5 322.0 76.8 320.8 81.9 316.25 83.8 309.9 L82.9 306.0 Q82.2 302.2 84.0 301.0 84.5 302.0 84.6 303.05 84.9 305.6 84.3 308.05 L83.8 309.9 Q85.9 317.2 90.7 323.25 96.55 330.65 106.15 331.7 109.0 332.0 112.0 331.05 127.6 326.2 135.05 311.05 141.35 298.2 143.0 284.0 143.7 278.0 142.0 273.0 M128.0 240.0 Q127.4 245.6 129.2 248.9 L130.0 250.0 M57.0 225.0 Q54.4 229.55 53.5 234.9 M79.0 225.0 Q78.2 227.9 78.5 230.95 M18.0 264.0 Q17.65 259.05 20.0 263.0 21.5 265.55 22.3 268.95 26.25 285.7 27.8 303.0 29.5 322.05 28.05 341.0 27.2 352.1 26.0 363.0 M78.0 254.0 Q77.55 256.55 76.3 258.2 75.05 259.8 74.6 261.9 L74.2 263.1 M305.0 210.0 Q302.3 209.6 301.6 208.2 304.25 204.05 309.75 200.6 L313.0 198.0 M164.0 246.0 Q165.05 247.3 167.25 248.55 L168.65 248.8 Q170.1 258.15 169.7 268.05 169.5 272.5 169.65 277.0 170.0 286.0 170.75 294.95 171.0 298.0 171.55 301.1 172.35 305.25 177.0 306.0" fill="none" stroke="#000000" stroke-linecap="round" stroke-linejoin="round" stroke-width="2.75"/>
  </g>
</svg>
