<?xml version="1.0" encoding="UTF-8" standalone="no"?>
<svg xmlns:xlink="http://www.w3.org/1999/xlink" height="58.45px" width="99.2px" xmlns="http://www.w3.org/2000/svg">
  <g transform="matrix(1.0, 0.0, 0.0, 1.0, 0.0, 29.2)">
    <path d="M72.6 -16.75 Q80.25 -14.8 80.6 -7.2 80.7 -5.2 80.1 -3.4 79.0 0.05 76.9 2.95 74.45 6.25 71.85 3.65 67.0 -1.35 65.65 -8.2 64.9 -12.05 66.15 -13.9 66.7 -14.75 67.7 -15.2 69.9 -17.4 72.6 -16.75 69.9 -17.4 67.7 -15.2 66.7 -14.75 66.15 -13.9 64.9 -12.05 65.65 -8.2 67.0 -1.35 71.85 3.65 74.45 6.25 76.9 2.95 79.0 0.05 80.1 -3.4 80.7 -5.2 80.6 -7.2 80.25 -14.8 72.6 -16.75 M22.6 -24.0 Q35.25 -27.25 47.7 -28.2 79.95 -33.55 97.35 -10.2 100.8 -5.6 97.75 -0.55 84.1 21.7 57.05 27.4 33.0 32.5 11.6 23.55 0.45 18.9 0.0 7.05 -0.45 -4.2 9.25 -10.2 11.5 -21.2 22.6 -24.0 M66.15 -13.9 Q66.7 -15.2 67.7 -15.2 66.7 -15.2 66.15 -13.9 M43.15 -8.2 Q43.0 -10.9 45.7 -11.3 45.25 -15.2 48.75 -16.0 L50.5 -15.8 52.8 -14.3 Q62.7 -6.2 59.85 4.85 58.7 9.35 53.65 10.5 52.2 10.8 51.05 10.2 45.1 7.05 43.6 -0.2 43.2 -2.2 43.2 -4.2 L43.15 -8.2 43.2 -4.2 Q43.2 -2.2 43.6 -0.2 45.1 7.05 51.05 10.2 52.2 10.8 53.65 10.5 58.7 9.35 59.85 4.85 62.7 -6.2 52.8 -14.3 L50.5 -15.8 48.75 -16.0 Q45.25 -15.2 45.7 -11.3 43.0 -10.9 43.15 -8.2 M28.7 -16.2 L29.8 -15.5 Q38.1 -12.45 37.75 -3.2 37.7 -1.2 37.05 0.6 35.2 5.8 32.3 10.55 L30.35 14.1 Q27.85 19.2 22.75 18.9 21.25 18.8 20.05 18.2 18.25 17.3 16.6 16.0 L15.05 14.5 Q13.05 12.25 14.75 11.8 13.05 12.25 15.05 14.5 L16.6 16.0 Q18.25 17.3 20.05 18.2 21.25 18.8 22.75 18.9 27.85 19.2 30.35 14.1 L32.3 10.55 Q35.2 5.8 37.05 0.6 37.7 -1.2 37.75 -3.2 38.1 -12.45 29.8 -15.5 L28.7 -16.2" fill="#b5c0ff" fill-rule="evenodd" stroke="none"/>
    <path d="M72.6 -16.75 Q69.9 -17.4 67.7 -15.2 66.7 -14.75 66.15 -13.9 64.9 -12.05 65.65 -8.2 67.0 -1.35 71.85 3.65 74.45 6.25 76.9 2.95 79.0 0.05 80.1 -3.4 80.7 -5.2 80.6 -7.2 80.25 -14.8 72.6 -16.75 M14.75 11.8 Q13.05 12.25 15.05 14.5 L16.6 16.0 Q18.25 17.3 20.05 18.2 21.25 18.8 22.75 18.9 27.85 19.2 30.35 14.1 L32.3 10.55 Q35.2 5.8 37.05 0.6 37.7 -1.2 37.75 -3.2 38.1 -12.45 29.8 -15.5 L28.7 -16.2 M43.15 -8.2 L43.2 -4.2 Q43.2 -2.2 43.6 -0.2 45.1 7.05 51.05 10.2 52.2 10.8 53.65 10.5 58.7 9.35 59.85 4.85 62.7 -6.2 52.8 -14.3 L50.5 -15.8 48.75 -16.0 Q45.25 -15.2 45.7 -11.3 43.0 -10.9 43.15 -8.2 M67.7 -15.2 Q66.7 -15.2 66.15 -13.9" fill="none" stroke="#000000" stroke-linecap="round" stroke-linejoin="round" stroke-width="2.75"/>
  </g>
</svg>
