<?xml version="1.0" encoding="UTF-8" standalone="no"?>
<svg xmlns:xlink="http://www.w3.org/1999/xlink" height="392.1px" width="486.25px" xmlns="http://www.w3.org/2000/svg">
  <g transform="matrix(1.0, 0.0, 0.0, 1.0, -46.05, -15.2)">
    <path d="M495.95 27.0 Q493.45 27.05 492.25 30.1 488.05 40.7 492.45 51.8 492.95 53.0 494.0 53.95 499.05 58.4 504.8 53.8 L507.95 51.0 M510.95 39.0 Q512.2 37.75 514.95 37.65 517.2 37.6 519.05 36.15 L520.7 34.75 521.95 33.0 M514.95 28.0 Q512.25 28.8 511.4 31.85 L510.5 35.15 Q509.95 37.0 509.75 39.0 509.15 44.05 511.05 47.95 513.15 52.4 518.75 50.45 L521.05 49.15 522.85 47.9 523.95 47.0 M509.95 26.0 Q512.9 23.15 519.0 23.55 525.4 24.0 530.95 22.0 M435.95 53.0 Q429.75 52.5 431.1 47.05 L430.95 47.0 431.1 47.0 431.8 44.95 434.55 38.25 436.55 33.8 Q439.7 27.5 446.05 27.05 446.95 27.0 447.45 28.2 447.95 29.5 448.0 31.0 448.4 40.85 439.05 45.25 L435.8 46.55 432.95 47.0 431.1 47.0 431.1 47.05 444.05 50.6 Q448.5 51.8 451.95 50.0 M471.95 25.0 Q471.0 22.7 470.6 25.95 L470.1 29.05 Q468.2 37.7 468.8 47.0 468.95 49.0 469.4 50.9 470.35 54.6 474.05 55.6 L476.95 55.9 Q484.4 55.35 489.95 51.0 M410.95 51.0 Q415.05 38.25 423.05 26.1 L423.95 25.0 Q427.75 26.65 427.55 32.0 L427.55 37.0 427.55 37.05 427.95 37.0 M417.95 41.0 Q421.1 38.05 426.95 37.1 L427.55 37.05 Q427.95 45.5 427.95 54.0 M439.95 73.0 L443.9 71.9 Q454.3 68.6 464.95 71.0 M413.95 83.0 L412.95 83.0 411.4 83.15 410.5 95.05 Q410.45 96.0 411.25 96.55 L412.95 97.0 M411.4 83.15 Q412.05 76.05 412.95 69.0 409.15 70.7 406.25 74.25 L402.65 78.75 399.45 82.9 Q404.2 85.35 410.1 83.45 L411.4 83.15 M430.95 70.0 Q428.2 77.1 426.05 86.0 425.25 89.2 426.95 90.0 M459.95 27.0 L459.95 56.0 459.95 57.0 M444.95 99.0 Q446.65 90.5 449.4 81.8 449.95 80.0 449.95 78.0 L449.95 77.0 M458.95 100.0 Q461.2 95.75 465.15 90.15 L465.25 90.0 475.05 76.05 475.95 75.0 Q477.75 81.45 477.5 89.0 477.45 91.5 477.85 94.0 L478.95 100.0 M465.25 90.0 L474.95 89.1 475.95 89.0 M382.95 18.0 Q382.75 14.65 383.6 19.05 385.7 30.7 386.05 42.75 L389.35 39.1 Q388.85 38.25 388.95 37.0 M371.2 40.0 L369.6 28.05 Q369.25 25.05 367.95 24.0 363.15 28.7 361.9 37.0 362.85 41.3 369.0 40.2 L371.2 40.0 371.65 43.05 372.35 46.9 Q372.45 47.5 372.95 48.0 M384.95 44.0 L386.05 42.75 Q386.2 48.35 385.95 54.0 M406.7 22.75 L404.05 25.15 400.85 27.9 Q394.3 33.8 389.35 39.1 390.0 40.25 391.75 40.7 392.95 41.0 394.15 41.6 402.15 45.4 410.95 47.0 M335.0 54.0 Q333.05 55.4 338.0 55.15 L343.9 54.4 348.1 53.3 Q353.0 51.65 355.35 48.25 356.75 46.25 355.0 44.0 349.6 36.85 342.25 30.7 338.6 27.7 340.7 23.85 344.25 17.3 352.0 18.0 M328.0 73.0 Q320.45 80.05 323.7 90.1 324.6 93.05 326.25 95.85 327.5 98.05 330.0 98.0 332.7 97.95 335.3 96.5 337.0 95.5 338.9 94.7 342.65 93.2 346.1 91.05 L347.9 87.95 350.95 83.0 Q354.9 76.2 360.95 71.0 363.9 71.45 363.35 75.05 362.95 77.5 362.95 80.0 L362.95 98.0 M351.0 89.0 Q349.45 86.3 354.05 86.65 L361.95 87.0 M377.95 86.0 Q378.45 86.5 379.0 86.55 L379.1 86.55 380.6 80.9 Q382.3 74.4 388.25 70.45 388.95 70.0 389.65 70.45 390.45 71.0 390.9 72.0 392.8 76.0 390.75 79.9 387.0 87.05 379.1 86.55 L377.4 93.1 Q375.85 99.15 378.95 101.0 M392.95 100.0 Q389.55 97.7 392.75 92.85 L395.15 89.15 399.45 82.9 397.95 82.0 M360.95 50.0 Q361.0 43.4 361.9 37.0 M343.0 101.0 Q343.6 95.8 346.1 91.05 M290.0 23.0 Q286.8 28.1 287.65 35.05 288.75 43.65 291.35 51.9 293.2 57.8 298.8 56.3 300.0 56.0 301.0 55.0 L305.0 51.0 M289.0 37.0 Q293.2 37.5 297.05 38.85 298.9 39.5 300.0 38.0 M286.0 26.0 Q287.05 22.8 291.0 22.6 L295.0 22.0 Q301.35 20.45 308.0 20.0 M247.0 61.0 Q243.85 60.65 243.55 57.05 L243.4 54.95 Q241.95 42.8 247.0 32.0 248.5 28.7 251.2 27.4 252.0 27.0 253.0 26.9 257.35 26.35 257.45 31.0 L257.75 33.05 Q258.9 38.25 255.2 40.35 254.0 41.0 253.1 42.05 249.8 45.95 245.5 45.5 L246.0 44.0 M269.0 28.0 Q268.0 26.5 267.0 30.0 264.25 39.25 268.2 47.9 269.65 51.05 273.9 49.7 L275.0 49.0 Q281.6 41.95 282.0 32.0 M260.0 76.0 Q262.3 83.0 263.35 90.95 263.5 92.0 264.05 93.0 267.0 98.55 273.0 99.0 273.95 90.95 276.35 83.1 277.0 81.0 277.95 79.0 279.85 74.95 281.0 71.0 M292.0 69.0 Q289.6 79.65 288.3 91.05 288.0 93.5 288.0 96.0 M302.0 73.0 Q300.75 77.3 300.9 81.0 301.05 85.65 300.65 90.05 300.5 91.5 300.65 93.05 301.15 98.6 306.95 97.65 308.0 97.5 308.95 96.9 L314.0 93.0 M152.0 77.0 Q148.4 76.0 152.05 73.05 167.0 60.85 185.25 53.65 189.5 52.0 194.0 50.9 209.45 47.15 222.65 55.55 225.0 57.0 226.85 59.15 234.65 68.3 238.0 80.0 241.05 90.65 235.75 99.85 L233.95 102.75 Q234.15 111.25 233.2 119.9 233.0 121.5 232.05 123.05 L230.75 124.75 229.0 126.0 M154.0 89.0 Q153.85 85.95 156.6 84.35 L159.25 82.25 Q166.1 75.6 175.0 72.05 188.75 66.55 203.0 68.9 209.55 70.0 215.9 72.35 224.7 75.55 230.45 83.4 232.0 85.5 232.5 88.1 L233.25 92.95 Q233.8 97.85 233.95 102.75 227.5 112.05 217.0 117.0 M211.0 202.0 Q209.1 205.75 208.9 211.4 L209.8 210.75 Q223.65 198.1 228.2 180.05 229.85 173.55 227.75 167.1 224.5 157.45 219.1 148.95 L217.75 147.25 216.1 145.9 215.95 145.8 Q214.05 147.2 213.0 149.0 M215.95 145.8 L215.0 145.0 M215.95 145.8 L218.15 144.3 Q223.95 141.1 226.2 135.65 226.5 135.0 225.75 134.25 L223.95 133.15 Q219.85 131.7 215.0 132.0 M165.0 126.0 L162.35 125.1 Q161.4 129.6 163.15 133.95 164.85 138.05 169.1 139.7 175.45 142.1 181.85 139.65 192.85 135.45 198.2 125.1 203.25 115.35 195.5 107.5 194.5 106.5 193.05 105.9 187.35 103.6 181.75 107.6 180.5 108.5 179.0 108.95 L175.0 110.0 M183.6 121.05 Q183.5 120.5 182.9 120.35 178.9 119.3 177.8 122.05 L178.9 121.9 178.9 121.85 Q179.5 121.5 180.0 121.5 L181.15 121.75 Q183.25 121.95 183.8 123.6 L183.6 121.05 M178.9 121.9 L178.65 122.4 179.35 122.2 178.9 121.9 177.9 122.6 178.65 122.4 178.4 123.1 177.8 126.3 178.8 128.2 178.85 128.2 Q180.0 128.0 181.05 127.05 183.45 125.0 183.0 123.45 182.75 122.75 181.9 122.15 L179.85 122.1 179.35 122.2 M177.45 123.15 L177.9 122.6 177.55 122.75 177.45 123.15 177.35 124.0 177.3 124.85 177.8 126.3 177.65 127.1 Q177.55 127.65 177.75 128.3 L178.8 128.2 179.65 129.5 180.15 129.85 181.75 128.45 181.05 127.05 M177.8 122.05 L177.55 122.75 176.9 122.95 177.05 123.9 177.45 123.15 M181.9 122.15 Q181.55 121.9 181.15 121.75 L178.9 121.85 M177.8 122.05 L176.9 122.95 176.3 124.1 Q175.2 127.65 177.1 128.2 L177.15 127.0 Q176.55 125.2 177.05 123.9 L177.3 124.85 177.15 127.0 177.7 128.3 177.75 128.3 178.0 128.9 178.05 129.0 Q178.85 130.45 180.15 129.85 L181.0 129.9 Q182.2 129.75 181.75 128.45 L182.05 128.05 Q183.25 126.45 183.65 124.6 L183.0 123.45 M177.0 106.0 Q167.2 110.65 162.95 122.95 L162.35 125.1 Q157.35 123.55 152.0 123.15 L148.15 122.5 Q142.3 120.85 137.05 123.15 133.85 124.6 135.0 125.0 M178.0 128.9 L177.7 128.3 177.1 128.2 177.0 133.0 Q179.75 132.65 181.45 131.1 179.5 132.2 178.05 129.0 M183.95 125.4 L183.85 125.95 Q183.35 129.3 181.45 131.1 L182.8 129.85 Q184.55 127.65 183.95 125.4 L183.65 124.6 183.8 123.6 183.95 125.4 M180.0 158.0 L179.5 158.75 Q181.45 159.65 183.3 161.7 L193.05 171.95 Q196.2 175.15 198.0 178.0 M137.0 157.0 Q132.5 156.9 131.3 162.05 131.0 163.5 130.85 165.0 129.95 175.35 133.05 185.0 134.0 188.0 135.3 190.9 138.7 198.6 147.0 198.85 151.85 198.95 156.2 196.35 174.75 185.15 173.7 164.0 L173.0 155.0 M174.0 162.0 Q174.7 160.85 177.05 160.3 178.5 160.0 179.5 158.75 178.25 158.15 177.0 158.0 M180.0 190.0 Q179.45 193.85 181.75 195.35 M149.0 88.0 Q148.25 87.55 147.6 86.5 L146.0 86.45 Q145.0 86.5 144.05 85.95 137.6 82.25 129.95 79.1 117.5 74.0 104.0 74.3 94.55 74.55 86.0 79.0 75.25 84.55 69.75 95.9 67.15 101.25 65.55 107.15 64.5 111.0 64.15 115.0 62.95 130.1 70.95 143.05 L72.85 145.75 Q75.5 144.1 79.1 143.45 L84.0 143.0 87.0 143.0 M147.6 86.5 L146.8 85.1 Q145.85 83.1 143.8 80.15 L142.4 77.8 Q140.3 73.4 136.7 70.4 121.35 57.6 102.0 60.95 83.85 64.15 69.95 76.95 55.95 89.8 50.65 107.9 48.9 113.85 49.05 120.0 49.2 128.25 54.45 134.65 56.0 136.5 58.15 137.8 61.85 140.05 66.0 140.0 M152.0 88.0 Q150.1 86.75 147.6 86.5 M85.0 154.0 Q77.65 151.85 72.85 145.75 67.85 148.75 65.95 155.0 65.5 156.5 65.5 158.0 L65.6 161.0 Q65.75 164.25 67.95 165.1 L70.0 166.0 71.8 166.7 75.0 163.0 M78.0 167.0 L71.8 166.7 Q66.05 173.95 63.3 183.1 59.8 194.55 65.2 204.9 67.75 209.7 70.65 214.25 75.7 222.1 83.7 223.75 L83.0 223.0 M109.0 109.0 Q103.3 112.7 101.35 121.1 101.0 122.5 101.05 124.0 101.4 135.45 110.75 142.3 L115.0 145.0 Q119.15 147.25 123.1 144.1 L125.95 141.95 Q132.65 137.25 133.35 129.05 L133.7 125.95 Q134.55 119.4 132.15 113.95 L130.6 111.3 Q130.0 110.5 129.0 110.0 122.25 106.8 114.0 108.15 109.3 108.9 108.0 112.0 M122.15 118.8 Q120.2 117.35 119.25 119.15 118.9 119.8 118.7 120.95 L118.45 122.05 Q119.1 121.0 120.2 120.7 122.45 120.15 123.6 120.65 123.1 119.5 122.15 118.8 M118.45 122.05 L118.3 122.2 Q117.5 125.8 118.65 127.75 118.6 126.45 118.85 124.95 119.25 122.25 121.95 122.45 122.5 122.5 123.1 122.85 L124.15 123.6 Q124.1 121.85 123.6 120.65 125.3 121.4 124.85 124.4 125.65 125.8 124.6 127.8 124.55 128.35 124.15 128.7 124.15 130.35 123.35 131.3 122.0 132.8 120.75 132.3 119.85 133.05 118.8 133.3 118.0 133.5 117.65 132.7 117.0 131.3 116.75 129.9 115.05 127.55 115.7 123.95 116.4 120.15 119.25 119.15 M124.85 124.4 L124.15 123.6 124.15 124.0 123.9 126.85 124.0 127.25 124.7 124.95 124.85 124.4 M123.9 126.85 L123.7 126.1 Q122.8 122.75 121.0 125.0 123.1 129.6 119.15 125.25 119.35 125.65 119.0 126.0 119.0 129.6 122.9 129.1 L123.65 127.95 123.9 126.85 M123.65 127.95 L124.0 127.25 124.15 128.55 124.6 127.8 M123.65 127.95 L123.25 129.05 123.85 128.9 124.15 128.55 124.15 128.7 123.85 128.9 122.9 129.75 Q122.15 131.1 121.05 132.05 L120.75 132.3 119.8 131.6 118.35 131.5 Q117.35 130.8 116.75 129.9 116.05 126.05 118.3 122.2 M122.9 129.1 L123.25 129.05 122.9 129.75 122.2 129.85 Q121.2 130.9 119.8 131.6 118.7 130.15 118.65 127.75 119.65 129.45 122.2 129.85 L122.9 129.1 M119.15 125.25 L118.85 124.95 M126.0 170.0 Q122.85 167.65 118.75 170.7 113.05 174.9 109.45 181.7 108.5 183.5 107.15 185.1 103.75 189.2 103.0 194.0 M128.0 168.0 Q122.4 169.1 122.95 164.0 L123.0 163.0 M131.0 213.0 Q130.35 213.6 130.15 214.1 129.5 215.4 132.0 215.45 133.5 215.5 134.95 216.15 144.8 220.4 155.0 218.05 L174.05 213.25 176.0 213.0 M130.15 214.1 Q127.4 216.3 126.65 219.9 L126.0 221.0 M130.0 198.0 Q129.8 201.15 129.1 204.05 M83.7 223.75 L91.0 224.0 M88.0 294.0 Q89.4 293.15 89.8 290.0 L90.2 287.05 Q90.9 282.55 91.05 278.0 91.85 258.2 90.3 239.0 90.0 235.3 88.65 232.15 86.55 227.0 83.7 223.75 M110.0 253.0 Q108.35 260.55 108.45 269.0 L108.45 274.0 Q108.2 281.6 107.35 289.05 106.4 296.65 108.65 303.1 109.5 305.5 109.9 308.0 111.3 316.65 116.5 323.65 L118.75 326.25 Q123.0 330.4 128.1 331.65 134.35 333.25 138.15 328.1 141.15 324.15 144.5 320.55 L146.3 318.2 147.8 315.85 151.0 311.0 Q152.65 310.9 152.55 313.0 152.5 315.0 152.75 317.05 153.45 323.2 156.65 328.65 158.0 331.0 159.7 333.25 165.05 340.25 173.9 339.15 175.0 339.0 176.1 338.15 181.35 334.05 183.4 327.15 184.5 323.5 185.85 319.95 193.5 300.05 196.6 278.95 L198.7 264.95 Q199.55 259.75 198.0 255.0 M78.0 294.0 Q73.55 299.4 71.0 306.0 64.15 323.85 58.0 342.0 56.5 346.5 55.35 351.1 50.9 368.95 48.2 387.05 47.2 393.95 47.45 400.95 47.5 402.95 48.25 404.85 L49.0 405.95 M89.0 298.0 Q92.6 302.95 98.25 308.75 99.5 310.0 101.0 311.0 L104.0 313.0 M203.0 211.0 Q204.3 212.7 207.95 211.75 L208.9 211.4 208.85 213.0 Q208.9 228.2 211.05 243.0 212.4 252.6 215.45 261.85 L216.65 265.15 Q217.75 268.0 220.0 270.0 M177.0 212.0 Q176.65 215.35 177.6 217.2 L178.3 218.9 179.0 220.0 M170.0 196.0 Q167.9 198.35 169.5 200.4 L170.4 201.8 M201.0 303.0 Q200.3 299.95 202.6 298.45 L205.15 296.1 Q213.3 286.2 220.85 275.9 L222.0 274.0 M217.0 264.0 Q216.3 261.3 217.8 260.6 229.45 270.5 239.3 285.8 L244.85 294.1 Q255.0 308.9 262.7 325.15 264.5 329.0 265.75 333.05 271.3 350.8 272.75 369.0 L273.35 375.95 Q274.15 383.3 276.75 390.05 277.5 391.95 277.65 393.95 277.85 397.1 279.0 399.95 M123.0 192.0 Q120.8 198.35 118.2 203.1" fill="none" stroke="#000000" stroke-linecap="round" stroke-linejoin="round" stroke-width="2.75"/>
  </g>
</svg>
