<?xml version="1.0" encoding="UTF-8" standalone="no"?>
<svg xmlns:xlink="http://www.w3.org/1999/xlink" height="392.05px" width="555.85px" xmlns="http://www.w3.org/2000/svg">
  <g transform="matrix(1.0, 0.0, 0.0, 1.0, 9.55, -14.65)">
    <path d="M168.6 197.1 L169.1 198.0 169.0 197.0 168.6 197.1 167.0 196.0 Q166.05 196.75 165.8 198.3 166.2 197.9 166.85 197.6 L168.6 197.1 M145.0 252.0 L147.05 251.1 Q153.2 248.2 149.5 242.3 L148.2 240.8 Q143.8 236.9 145.0 239.0 M84.35 205.95 L84.75 206.65 85.05 206.05 85.9 205.05 Q84.75 205.2 84.35 205.95 83.75 204.7 85.0 204.0 86.35 204.15 87.05 204.95 87.7 202.5 87.95 205.9 L88.0 206.0 87.95 206.1 Q88.0 207.0 87.75 207.1 L87.7 207.15 Q87.6 211.25 85.1 209.85 84.0 210.0 84.3 208.9 L84.15 208.2 Q83.85 206.75 84.35 205.95 M84.3 208.9 L85.1 209.85 85.8 208.9 Q86.0 208.5 85.5 207.5 L84.75 206.65 Q84.2 207.6 84.15 208.2 M87.05 204.95 L87.1 205.0 87.05 204.95 85.9 205.05 M85.5 207.5 L86.7 207.55 87.05 207.3 Q84.65 207.7 87.0 205.0 L87.05 204.95 M87.05 207.3 L87.25 207.1 Q85.6 206.9 87.0 205.0 M87.95 206.0 L87.95 205.9 87.1 205.0 Q87.6 205.6 87.7 206.55 L87.95 206.1 87.95 206.0 M87.05 207.3 L87.7 207.15 87.7 207.1 87.25 207.1 87.7 206.55 87.7 207.0 87.7 207.1 87.75 207.1 M94.55 254.3 Q93.05 253.05 91.85 251.1 L91.4 249.95 Q90.7 244.75 96.0 244.0 M95.75 255.1 Q96.8 255.7 98.0 256.0 M95.75 255.1 L94.55 254.3 M87.0 279.0 Q84.0 281.3 82.65 286.9 L82.0 288.0 M96.0 288.0 Q95.75 292.1 95.1 296.0 L95.0 297.0 M117.0 293.0 Q118.7 293.3 118.1 296.0 L118.0 297.0 M139.0 281.0 Q138.65 284.35 139.6 286.2 L140.3 287.9 141.0 289.0 M148.0 270.0 Q149.1 273.8 151.1 276.9 L152.0 278.0 M144.0 306.0 Q145.45 310.9 147.45 316.85 M85.0 304.0 Q84.05 309.0 82.2 312.15 M169.25 199.9 Q169.1 202.05 167.0 203.0 L167.0 203.05 Q167.85 202.9 168.4 202.4 169.2 201.6 169.25 199.9 L169.1 198.0 M167.0 203.05 Q167.05 203.5 168.0 203.5 168.5 203.5 168.4 202.4 M167.0 203.0 L166.95 202.95 Q166.0 201.95 165.85 201.0 165.6 199.4 165.8 198.3 164.15 199.85 165.8 203.1 L167.0 203.05 M166.85 197.6 Q165.3 198.8 166.3 201.9 L166.95 202.95" fill="none" stroke="#000000" stroke-linecap="round" stroke-linejoin="round" stroke-width="2.75"/>
    <path d="M530.95 48.0 Q531.75 46.3 535.0 46.8 540.4 47.6 544.95 46.0 M502.95 66.0 Q501.45 67.9 502.15 65.05 506.5 46.35 516.95 30.0 518.6 29.9 518.5 32.0 L518.45 35.0 Q518.5 45.15 520.15 54.95 L521.15 61.95 Q521.55 65.15 522.95 66.0 M487.95 66.0 Q488.85 58.5 490.85 51.0 492.6 44.5 490.5 38.15 489.95 36.5 488.95 35.0 M478.95 30.0 Q476.7 32.55 480.85 31.65 L488.0 30.3 Q499.55 28.3 508.95 33.0 M506.95 52.0 Q509.95 49.65 513.2 51.55 L514.85 52.3 515.95 53.0 M435.95 66.0 Q433.85 61.4 435.65 56.0 L435.65 55.9 437.0 52.0 440.15 44.1 Q444.5 33.9 449.95 27.0 452.7 28.55 452.5 33.0 452.45 34.5 452.7 36.05 454.2 45.4 454.4 55.0 454.45 57.0 454.9 59.0 L455.95 64.0 M423.95 68.0 Q422.25 67.2 422.4 63.95 L422.25 61.95 419.15 43.95 Q418.0 37.55 420.6 31.85 L422.15 28.1 Q424.25 22.45 428.15 20.4 L429.85 20.3 430.75 21.1 Q432.95 25.1 433.95 31.0 434.7 35.55 433.4 39.15 L432.6 41.9 432.0 43.05 Q429.85 45.6 425.95 45.25 L421.0 44.6 419.15 43.95 M385.95 66.0 Q385.25 63.3 386.45 62.4 L387.35 61.2 Q389.3 57.0 390.3 52.05 391.3 46.85 393.45 41.8 L395.3 37.1 Q397.0 32.15 399.6 27.8 400.95 25.5 401.95 23.0 406.3 23.85 405.65 30.05 405.45 32.0 405.55 34.0 L406.35 47.0 Q406.45 49.0 406.85 51.0 409.1 62.35 409.95 74.0 M438.95 49.0 Q439.4 44.55 444.75 46.55 445.95 47.0 447.05 47.85 450.2 50.15 453.95 51.0 M468.95 24.0 Q469.3 43.7 467.1 63.0 466.7 66.7 467.95 70.0 M393.95 48.0 Q396.85 45.9 400.15 47.6 L403.3 47.45 Q403.95 47.0 404.95 47.0 L405.95 47.0 M326.0 22.0 Q324.3 23.3 324.45 27.05 L324.4 29.05 323.8 40.0 Q323.65 44.55 323.05 49.0 322.4 54.1 324.55 56.5 325.0 57.0 326.0 56.85 L331.0 56.35 Q338.45 55.85 344.95 58.0 M353.95 21.0 Q355.35 40.3 354.95 60.0 L354.95 61.0 361.9 59.75 364.0 59.4 Q367.1 59.2 369.8 60.35 372.3 61.4 374.95 62.0 M313.0 19.0 Q313.1 26.15 311.95 33.0 310.5 41.5 309.4 50.05 309.0 53.0 309.0 56.0 L309.0 64.0 M276.0 22.0 Q278.75 24.25 279.4 28.95 281.0 40.25 285.05 49.95 L286.1 51.95 Q287.75 54.5 287.55 58.05 L287.7 60.05 Q288.4 63.3 290.0 65.0 293.5 57.65 294.35 49.05 294.5 47.5 295.15 46.05 297.95 39.8 299.3 33.05 299.5 32.0 299.85 30.95 301.5 25.8 304.15 21.1 L304.7 19.9 305.0 18.0 M198.0 72.0 Q195.65 70.75 197.55 67.7 L198.2 66.05 Q200.85 51.7 201.9 37.0 202.0 35.5 202.35 34.1 L202.8 32.9 Q205.9 34.5 206.75 39.9 L207.5 43.15 Q209.4 49.1 213.85 54.15 218.35 59.3 224.95 58.65 227.1 58.45 227.8 55.95 233.05 37.0 236.0 17.0 M163.0 64.0 Q161.3 62.7 161.45 59.0 L161.2 56.95 Q159.55 51.4 159.65 45.0 159.85 34.5 162.25 25.05 L163.0 23.0 Q164.95 18.85 169.2 18.05 169.5 18.0 169.95 19.0 171.7 22.9 172.35 27.1 L172.3 29.05 Q171.55 33.3 167.25 37.3 L165.8 38.85 Q163.9 41.1 161.0 42.0 164.0 45.5 169.15 50.85 171.9 53.7 175.05 55.95 178.15 58.15 180.0 62.0 M191.0 16.0 L190.25 32.0 Q190.0 41.6 190.65 51.0 L191.45 61.95 Q191.5 62.5 192.0 63.0 M201.0 82.0 Q202.65 81.9 202.55 84.0 L202.55 87.0 203.2 106.0 Q203.3 110.1 203.85 114.0 204.1 115.85 206.0 117.0 M111.0 156.0 Q118.85 144.65 131.9 140.65 L141.15 137.4 145.9 135.7 Q164.75 129.5 184.95 131.45 L195.05 132.6 Q206.1 133.95 215.9 140.15 220.5 143.0 224.65 146.4 L227.1 148.9 Q232.8 156.0 234.2 164.95 236.1 176.6 232.85 187.95 230.4 196.4 223.0 201.0 M165.0 78.0 Q161.75 79.75 160.75 83.95 160.5 85.0 160.5 86.0 160.25 95.05 160.8 104.0 L161.4 111.95 Q161.5 113.0 162.2 113.8 164.25 116.05 167.0 116.95 177.45 120.3 186.0 114.0 M112.0 168.0 Q114.0 167.0 115.35 165.3 121.4 157.9 130.85 154.55 147.75 148.5 166.05 149.35 L173.0 149.05 Q190.35 146.85 203.7 157.4 208.25 161.0 210.9 166.05 215.7 175.2 218.2 184.95 219.55 190.25 219.0 196.0 M167.0 182.0 Q163.6 181.95 161.05 184.05 L160.1 185.05 Q156.9 189.4 154.3 194.15 152.35 197.75 153.25 201.95 154.4 207.5 157.35 212.8 158.0 214.0 159.1 214.85 166.3 220.4 174.15 216.25 175.5 215.5 176.9 214.85 183.2 211.9 185.4 206.15 L186.6 202.85 Q189.25 195.85 185.8 189.1 184.3 186.15 182.2 184.75 177.55 181.6 171.9 180.4 L168.0 180.0 M98.0 16.0 Q99.65 22.0 98.7 28.95 98.25 32.05 99.4 34.3 100.0 35.5 100.1 37.0 L100.45 43.2 102.4 44.0 Q108.15 38.95 113.15 33.1 L115.85 29.85 Q117.9 27.3 120.75 26.3 L122.3 25.45 Q123.0 25.0 123.9 24.7 L125.0 24.5 M130.0 64.0 Q131.25 54.85 135.35 46.15 138.65 39.25 140.25 32.05 140.5 31.0 141.1 30.05 L144.0 25.0 Q144.3 28.2 145.55 30.25 L146.3 31.9 Q147.4 35.1 147.3 39.0 147.2 43.15 148.2 46.95 L148.9 49.05 Q150.1 51.95 151.55 54.3 L152.35 55.85 Q153.65 59.0 153.0 63.0 M70.0 42.0 L74.0 42.6 74.4 41.1 Q75.65 36.5 77.2 32.05 L80.2 23.05 80.85 20.95 Q82.35 21.65 82.5 25.0 82.5 25.5 82.85 26.1 84.35 28.65 84.45 32.0 84.5 33.0 84.9 34.05 L88.1 43.0 89.0 43.0 M74.0 42.6 L88.0 43.0 88.1 43.0 89.3 46.9 89.65 48.1 Q91.0 53.4 92.95 57.0 93.5 58.0 93.7 59.05 L94.35 61.9 Q94.5 62.5 95.1 62.8 M100.0 43.0 L100.45 43.2 100.55 45.6 102.4 44.0 104.9 45.2 Q108.8 47.1 112.2 51.85 L113.75 54.15 116.2 57.9 Q119.6 63.35 124.0 66.0 M100.55 45.6 L100.55 47.0 Q100.65 52.35 102.3 56.9 102.95 58.8 102.7 60.95 102.3 63.7 104.0 64.0 M100.0 46.0 L100.55 45.6 M97.0 135.0 Q95.7 137.45 93.95 134.0 92.65 131.35 92.55 128.0 L92.4 125.0 91.55 111.05 91.2 108.95 Q89.65 103.45 87.7 98.1 L87.4 96.9 Q87.0 95.0 87.0 93.0 87.0 89.3 90.95 88.6 L96.15 87.5 99.95 86.75 Q106.1 85.9 110.25 89.7 113.35 92.6 110.65 95.7 L109.2 97.2 Q104.9 100.9 100.2 104.25 96.95 106.55 93.0 107.0 M134.0 51.0 Q134.8 49.3 138.05 49.55 140.8 49.8 142.85 51.2 144.05 51.95 146.0 52.0 M146.0 81.0 Q144.5 80.5 143.2 79.65 141.0 78.25 138.0 79.1 131.15 81.0 124.7 83.5 L124.75 85.0 Q124.95 89.1 124.4 93.05 124.0 96.0 123.85 99.0 L123.4 107.25 Q124.75 105.4 128.35 107.35 129.5 108.0 131.0 108.15 136.55 108.85 141.1 107.2 142.2 106.8 143.0 105.0 M124.75 85.0 Q120.4 85.15 123.9 83.8 L124.7 83.5 Q124.7 80.05 126.0 78.0 M39.0 54.0 Q39.15 57.3 41.1 59.9 44.0 63.8 49.0 64.0 53.9 64.25 55.55 61.3 56.0 60.5 57.05 60.15 59.85 59.15 60.4 55.05 L60.55 53.95 Q61.05 49.45 58.95 47.05 L58.05 45.95 Q53.65 40.3 47.95 36.1 45.0 33.9 44.4 31.9 L43.75 29.05 Q42.7 22.2 48.8 19.55 L51.2 18.35 Q54.6 16.5 59.0 17.0 M70.0 66.0 Q69.65 57.8 71.85 49.95 L73.6 43.9 74.0 42.6 M109.0 157.0 Q103.5 152.05 101.45 144.15 101.0 142.5 99.7 141.3 95.95 137.85 91.0 136.05 72.5 129.45 53.85 136.6 42.9 140.8 36.4 150.25 33.5 154.5 30.9 158.95 25.3 168.5 20.15 178.1 17.65 182.85 17.0 188.0 M113.0 171.0 Q108.4 164.45 99.75 157.3 96.25 154.45 92.15 153.4 L88.85 152.6 84.05 151.65 Q74.05 150.2 63.95 153.85 54.4 157.35 46.9 163.9 39.95 170.05 37.7 179.95 37.0 183.0 36.45 186.1 36.0 188.5 36.0 191.0 L36.0 197.0 M67.65 194.2 L66.8 194.6 Q59.25 198.7 57.25 209.05 56.25 214.2 59.3 217.7 L60.75 219.25 Q64.55 223.1 69.0 224.95 73.2 226.75 78.0 226.55 L81.05 226.75 Q86.05 227.6 88.9 225.85 L89.9 224.95 Q93.45 220.05 96.55 214.75 L97.25 213.1 Q99.15 206.4 96.9 200.05 96.5 199.0 95.8 198.2 91.0 192.85 81.95 190.25 L80.0 189.9 Q71.9 188.9 67.65 194.2 M123.4 107.25 L122.8 115.0 122.0 121.0 Q120.65 129.45 127.05 131.8 L130.4 131.65 Q131.5 131.0 132.95 130.75 140.1 129.5 148.0 130.0 M123.0 108.0 L123.4 107.25 M96.9 200.05 Q101.65 195.3 110.0 195.65 118.0 196.0 126.0 195.6 L130.05 195.3 Q141.95 194.15 152.0 199.0 M97.0 253.0 Q96.2 253.65 95.8 254.85 L95.8 254.95 95.75 255.1 Q95.4 256.3 95.45 258.05 95.5 259.0 95.15 260.05 94.4 262.15 95.6 262.8 96.0 263.0 96.2 263.95 97.35 270.25 100.2 275.9 101.7 278.85 103.8 280.3 108.3 283.5 112.05 285.9 118.1 289.8 125.15 287.45 L127.9 286.65 129.1 286.25 Q133.45 284.35 136.05 280.0 141.9 270.1 144.55 258.9 L145.3 255.05 145.85 252.95 M94.55 254.3 Q92.85 253.95 90.7 255.6 83.3 261.3 79.0 268.0 M95.8 254.85 Q95.2 254.4 94.55 254.3 M146.0 252.0 Q154.55 253.4 158.8 261.1 M35.0 229.0 L30.95 229.85 Q25.8 230.7 22.15 227.85 19.35 225.65 20.3 220.05 L20.9 217.95 Q24.05 210.0 29.0 207.0 31.35 205.6 34.0 205.5 34.5 205.5 35.0 206.0 36.8 207.65 40.0 209.0 M39.0 250.0 Q37.7 247.35 36.5 245.65 36.0 245.0 36.0 244.0 36.0 237.0 36.45 230.05 36.5 229.5 37.0 229.0 M39.0 258.0 Q37.7 269.6 29.35 279.3 L24.85 284.9 Q15.25 297.85 3.3 308.35 -0.25 311.5 -5.0 311.95 -7.0 312.15 -8.2 311.55 -4.45 314.15 0.8 316.4 16.2 323.15 31.75 317.35 34.0 316.5 35.85 314.85 L38.35 312.55 Q37.5 310.25 36.95 308.0 34.8 299.3 37.0 290.0 L37.7 285.95 Q38.25 280.6 39.8 275.95 41.35 271.35 41.0 266.0 M50.0 279.0 Q51.9 275.8 52.55 271.9 53.0 269.0 52.3 266.2 52.0 265.0 51.3 263.85 45.9 255.15 36.0 252.0 M41.0 310.0 L38.35 312.55 39.45 315.25 40.45 317.85 Q41.0 319.5 41.85 321.1 44.55 326.25 49.8 328.45 53.25 329.85 56.05 332.95 L57.0 334.0 M75.0 343.0 Q71.4 357.9 74.3 372.95 75.35 378.5 79.3 382.7 L82.0 385.0 Q87.1 388.5 93.0 388.5 L95.0 388.0 Q102.5 384.4 105.45 376.15 106.55 373.0 108.0 370.0 L109.0 368.0 Q113.95 376.9 119.9 386.05 123.65 391.75 130.05 392.6 133.25 393.0 136.0 390.95 143.2 385.6 146.6 376.85 150.25 367.3 150.1 357.0 150.0 350.3 147.0 345.0 M61.0 338.0 Q60.95 356.65 58.55 374.95 56.75 388.9 56.15 402.95 L56.0 404.95 M86.0 310.0 Q87.85 312.35 91.0 312.45 L93.05 312.6 99.95 313.35 Q103.15 313.7 106.1 314.6 L109.0 315.05 Q119.2 315.3 128.95 313.75 L145.0 312.0 M199.0 246.0 Q199.05 237.35 198.05 229.0 L198.0 228.0 Q198.7 233.0 204.2 230.4 211.0 227.2 210.9 220.0 210.9 218.15 209.15 216.8 205.05 213.65 200.0 213.0 M190.0 267.0 Q191.45 274.6 191.3 283.0 191.1 294.75 188.8 305.95 188.05 309.7 186.25 313.1 185.5 314.5 185.2 316.05 184.25 321.25 181.05 324.05 L180.15 325.1 Q179.1 326.8 177.3 325.3 175.2 326.7 173.15 327.4 168.9 328.9 168.7 335.0 168.35 348.7 169.7 362.05 170.0 365.0 169.95 368.0 169.7 383.5 173.6 398.05 L174.45 400.8 176.0 404.95 M178.0 277.0 Q175.0 275.35 176.6 271.8 L177.4 270.2 Q180.5 263.75 185.9 258.9 L188.9 255.9 Q191.4 253.05 195.0 253.0 M177.3 325.3 L177.0 325.0 M179.0 324.0 L177.3 325.3" fill="none" stroke="#000000" stroke-linecap="round" stroke-linejoin="round" stroke-width="2.75"/>
  </g>
</svg>
