<?xml version="1.0" encoding="UTF-8" standalone="no"?>
<svg xmlns:xlink="http://www.w3.org/1999/xlink" height="411.2px" width="397.95px" 
  xmlns="http://www.w3.org/2000/svg">
  <g transform="matrix(1.0, 0.0, 0.0, 1.0, -80.2, -7.6)">
    <path d="M281.5 46.55 Q272.75 47.4 277.15 42.05 284.85 32.6 297.75 27.45 L311.5 21.45 Q329.05 13.2 348.85 9.75 356.75 8.3 364.85 9.4 372.55 10.45 379.9 12.7 410.45 22.2 426.9 45.0 431.05 50.8 435.55 56.55 446.95 71.05 452.45 87.6 M290.8 77.7 Q281.85 79.5 283.8 73.5 286.7 64.15 296.15 56.3 322.1 35.0 359.55 35.45 370.85 35.55 380.25 39.0 L394.65 44.1 Q429.4 56.05 446.9 81.95 458.1 98.4 449.2 116.05 445.75 123.0 439.45 128.65 M333.55 130.05 Q331.5 128.35 329.0 127.0 L329.25 128.5 Q329.8 131.5 331.3 134.45 332.6 137.15 334.25 139.7 339.0 147.25 350.25 148.35 373.65 150.6 390.6 138.15 393.8 135.7 394.75 132.9 401.9 111.6 380.9 95.4 379.05 93.95 376.25 93.85 363.5 93.35 352.1 97.5 346.05 99.9 341.9 103.75 340.95 104.6 340.95 106.0 M365.7 121.45 Q364.05 117.9 360.45 119.35 364.9 119.7 365.85 122.0 L365.7 121.45 M365.85 122.0 L366.05 123.0 365.7 124.55 364.4 127.4 364.35 127.5 Q365.1 127.2 365.6 125.95 366.55 123.55 365.85 122.0 M356.9 119.3 Q355.25 120.8 355.7 123.85 356.1 122.0 358.15 120.6 359.35 119.75 360.45 119.35 358.85 119.2 356.9 119.3 L355.9 119.4 Q354.6 122.7 355.6 124.75 L355.7 123.85 355.85 124.5 Q356.2 124.05 357.6 123.85 366.3 122.7 364.4 127.4 M364.25 127.55 L361.6 127.75 Q357.65 127.35 356.1 125.55 L356.2 125.75 Q357.05 128.2 359.6 128.45 361.45 128.6 364.25 127.55 L364.35 127.5 Q364.2 129.35 363.35 130.15 359.9 133.25 357.05 128.85 355.55 126.6 355.6 124.75 L355.7 124.95 355.85 124.5 356.1 125.55 355.7 124.95 356.2 125.75 357.05 128.85 359.6 128.45 M352.1 97.5 Q342.9 96.75 337.05 103.1 327.1 113.95 329.0 127.0 323.95 124.25 316.9 122.8 280.25 115.15 246.0 125.4 239.4 127.4 238.75 131.5 M342.8 188.1 Q345.95 188.55 345.7 192.45 345.6 193.75 346.45 195.2 350.7 202.2 357.7 206.5 M248.05 189.55 Q242.35 192.9 243.75 200.9 L245.0 207.85 Q248.5 225.75 272.2 227.6 292.7 229.15 310.95 221.75 331.0 213.6 338.1 196.3 339.1 193.75 339.1 190.95 339.0 181.1 333.55 175.35 M432.0 151.3 Q437.85 154.6 444.95 149.8 452.35 144.8 454.8 138.3 455.25 137.15 454.3 135.75 450.85 130.75 441.1 129.3 L432.0 128.65 Q426.6 128.65 422.75 125.85 M430.15 241.9 Q429.1 240.45 431.65 244.85 L434.6 250.45 435.45 250.05 Q450.7 242.15 457.3 228.95 458.95 225.6 459.25 222.1 461.45 194.35 440.75 171.4 438.5 169.0 435.85 166.8 429.95 162.1 422.75 159.8 M402.3 253.2 Q402.85 250.8 407.85 251.75 417.6 253.35 428.1 252.25 431.5 251.85 434.6 250.45 437.5 256.45 439.75 263.05 446.4 283.45 449.6 304.1 450.6 311.25 452.85 318.25 457.65 333.25 464.0 348.0 L468.9 359.45 Q478.1 380.05 476.6 401.85 M339.1 222.1 L339.1 227.75 339.1 229.15 M190.45 315.5 Q190.4 310.75 189.95 316.9 187.55 345.35 201.05 371.7 203.45 376.35 206.8 380.75 218.85 396.8 241.0 405.55 244.3 406.8 248.05 407.0 259.0 407.55 266.7 402.0 289.3 385.7 285.2 362.2 289.65 370.0 297.3 377.25 300.05 379.9 303.4 382.3 315.75 391.45 331.75 387.9 350.9 383.6 362.6 371.8 372.25 361.95 371.45 349.5 370.7 338.85 370.3 328.25 370.05 323.5 372.55 319.75 M266.65 50.8 Q265.85 46.2 259.2 43.7 247.75 39.4 234.85 35.65 216.15 30.15 196.0 30.7 160.4 31.7 130.95 46.5 100.75 61.6 85.35 86.45 80.3 94.45 82.0 103.05 82.65 106.7 85.45 109.75 89.15 113.8 93.8 117.35 M266.65 81.95 Q264.0 63.05 242.55 52.1 238.75 50.1 234.55 48.7 230.35 47.25 225.75 46.5 191.1 40.95 160.7 55.1 139.15 65.15 124.75 81.65 104.3 105.0 104.85 132.9 104.95 137.85 108.1 142.25 110.5 145.65 114.45 148.25 L116.7 149.7 Q120.95 149.05 125.75 150.55 128.15 151.3 130.95 151.3 L140.25 151.3 M205.3 135.75 Q202.2 135.3 199.95 135.7 L201.2 136.3 Q204.45 137.6 205.3 139.5 205.95 137.8 205.3 135.75 M204.9 143.3 L204.95 142.8 204.85 140.4 203.8 141.6 Q200.1 145.15 194.45 143.65 194.4 146.55 201.5 146.4 L202.25 146.3 203.25 145.55 204.9 143.3 Q206.0 141.2 205.3 139.5 L204.85 140.4 Q204.15 135.6 198.8 139.25 199.7 140.65 199.75 141.4 M184.85 115.9 Q177.85 116.1 172.95 119.65 169.75 121.9 167.5 125.55 162.55 133.3 162.65 142.8 162.75 158.1 179.55 165.05 188.1 168.5 197.8 167.8 220.45 166.15 232.8 151.1 242.55 139.1 234.85 127.3 226.1 114.0 207.25 112.6 L201.5 112.1 Q186.35 110.6 174.25 116.6 172.75 117.3 172.95 119.65 M197.85 134.3 L195.35 134.55 Q190.75 135.65 192.1 141.4 L192.6 142.95 194.45 143.65 Q193.8 136.75 199.95 135.7 L197.85 134.3 M195.35 134.55 Q191.5 135.35 191.35 138.55 L191.2 140.05 Q190.75 141.9 192.6 142.95 194.55 147.05 201.5 146.4 M202.25 146.3 Q204.5 145.6 204.9 143.3 M121.7 178.2 Q111.2 179.0 103.65 174.8 100.1 172.9 100.05 169.7 99.55 159.95 109.05 153.0 112.6 150.35 116.7 149.7 L121.7 152.7 M157.0 271.65 Q143.75 271.55 132.55 267.8 129.1 266.65 125.4 265.9 93.5 259.15 89.8 234.7 89.15 230.55 89.7 226.35 91.1 216.1 98.75 207.55 L105.5 199.7 Q116.55 186.75 130.95 176.8 M132.85 274.45 Q126.7 270.2 130.25 274.8 132.65 277.85 133.3 281.45 138.3 308.35 131.9 335.45 130.0 343.1 128.45 350.85 125.2 367.3 120.65 383.6 L117.2 396.05 Q115.15 403.85 113.7 411.7 112.95 415.3 116.1 417.45 M307.5 233.4 Q310.85 234.75 314.75 234.1 M272.2 241.9 Q269.3 244.1 271.1 247.3 M244.35 268.8 Q242.2 268.7 241.65 270.15 L248.25 271.15 253.6 271.65 Q276.85 271.55 298.4 266.3 302.85 265.25 307.5 264.55 L322.9 263.15 Q323.35 261.65 324.25 260.3 M324.25 263.15 L322.9 263.15 Q321.6 267.0 323.05 271.5 323.3 272.3 324.25 273.05 M240.6 241.75 L242.45 241.9 M240.6 205.1 Q232.9 204.85 227.25 210.55 224.8 212.85 221.95 214.95 215.8 219.4 214.6 224.9 M238.75 270.2 L241.65 270.15 Q241.4 270.75 241.45 271.65 L241.25 274.55 Q240.6 278.0 240.6 281.55" fill="none" stroke="#000000" stroke-linecap="round" stroke-linejoin="round" stroke-width="2.75"/>
  </g>
</svg>
