<?xml version="1.0" encoding="UTF-8" standalone="no"?>
<svg xmlns:xlink="http://www.w3.org/1999/xlink" height="427.85px" width="363.4px" xmlns="http://www.w3.org/2000/svg">
  <g transform="matrix(1.0, 0.0, 0.0, 1.0, -2.65, 205.9)">
    <path d="M253.0 50.1 Q261.75 52.75 269.05 59.4 L270.0 60.25 266.7 63.75 270.0 60.25 276.45 66.0 277.85 67.25 275.7 68.75 277.85 67.25 Q290.6 78.2 303.95 88.45 L304.5 88.85 304.55 88.9 304.35 89.1 304.55 88.95 304.6 88.95 Q317.1 98.6 326.9 111.1 L325.65 111.35 315.7 110.75 325.65 111.35 326.9 111.1 331.3 117.05 Q333.2 119.75 334.7 122.75 337.55 128.35 339.75 134.15 L336.8 132.6 Q333.2 130.6 332.7 127.75 333.2 130.6 336.8 132.6 L339.75 134.15 Q342.25 140.75 344.0 147.65 345.45 153.6 346.35 159.8 L347.0 163.9 Q344.7 160.95 342.7 157.75 344.7 160.95 347.0 163.9 348.5 172.55 351.25 180.85 352.2 183.7 352.55 186.7 L353.8 197.4 353.25 198.75 349.7 198.75 346.8 199.1 341.65 200.45 Q340.7 200.7 340.0 201.15 335.35 204.05 330.55 202.05 L329.5 201.3 Q328.85 200.1 326.7 200.65 L322.75 201.85 Q317.7 203.45 312.75 201.6 L310.7 201.2 289.7 201.65 282.75 202.1 261.75 203.65 255.85 204.2 248.7 205.3 228.7 208.5 Q222.15 209.65 215.85 211.95 L211.65 213.3 Q203.0 215.8 193.75 215.95 183.6 216.15 173.75 217.65 164.6 219.05 154.75 218.85 L132.8 219.9 115.75 220.5 76.75 218.9 66.8 218.2 Q58.1 217.35 49.7 214.9 L44.75 213.95 27.7 212.0 22.8 211.3 13.7 209.9 11.75 209.6 Q11.6 204.7 8.65 201.2 10.6 193.55 12.85 185.75 14.5 180.1 16.55 174.65 L17.2 172.9 Q21.85 160.95 25.2 148.6 L28.2 135.85 Q28.75 133.25 29.75 130.75 L30.6 128.75 Q33.6 122.0 37.6 115.95 L42.75 115.8 43.75 115.75 42.75 115.8 37.6 115.95 Q41.85 109.4 47.35 103.7 L47.65 103.9 47.4 103.65 Q49.65 101.3 52.05 99.1 L58.65 93.4 Q66.85 86.6 75.75 80.75 L81.85 76.9 85.5 74.45 Q92.3 69.35 99.7 67.5 L103.7 66.4 103.8 66.75 Q104.1 70.1 102.4 72.5 100.6 74.95 103.75 74.75 104.1 77.3 105.6 78.6 L106.7 80.75 Q111.35 87.7 117.85 92.6 128.8 100.85 140.95 107.4 147.95 111.15 155.75 111.95 L161.75 112.85 Q169.95 114.45 178.75 113.75 193.65 112.45 205.85 102.9 209.15 100.35 212.55 99.15 213.75 98.75 214.7 97.7 221.5 89.9 229.6 84.5 L231.8 82.8 Q239.25 76.25 245.8 67.8 249.25 63.35 250.1 57.8 250.25 56.75 250.7 55.75 L252.75 50.75 253.0 50.1 M79.75 84.75 Q77.9 83.85 77.05 82.55 L75.75 80.75 77.05 82.55 Q77.9 83.85 79.75 84.75 M287.8 79.95 Q286.2 80.75 284.7 81.75 281.75 83.7 280.7 81.75 281.75 83.7 284.7 81.75 286.2 80.75 287.8 79.95 M315.45 170.1 Q312.95 168.45 311.7 163.75 312.95 168.45 315.45 170.1 M297.7 166.75 L297.7 165.75 297.7 164.75 297.7 165.75 297.7 166.75 M285.7 159.75 L284.75 158.7 Q283.05 156.75 282.7 153.75 283.05 156.75 284.75 158.7 L285.7 159.75 M263.7 143.75 L263.05 142.65 260.75 134.75 263.05 142.65 263.7 143.75 M245.75 125.75 Q245.25 125.25 245.05 124.65 243.75 120.85 240.75 117.75 243.75 120.85 245.05 124.65 245.25 125.25 245.75 125.75 M311.7 100.75 L309.75 101.0 304.7 101.75 309.75 101.0 311.7 100.75 M330.7 125.75 L328.65 124.9 Q326.7 124.25 325.0 123.25 320.45 120.55 322.7 116.75 320.45 120.55 325.0 123.25 326.7 124.25 328.65 124.9 L330.7 125.75 M344.0 147.65 Q341.3 144.7 338.7 142.75 341.3 144.7 344.0 147.65 M329.7 175.7 L328.7 174.75 327.7 173.75 328.7 174.75 329.7 175.7 M304.35 89.1 Q300.3 91.3 296.7 93.75 300.3 91.3 304.35 89.1 M64.75 96.75 L62.7 95.95 Q59.95 95.1 58.65 93.4 59.95 95.1 62.7 95.95 L64.75 96.75 M51.75 105.75 Q49.45 105.1 47.65 103.9 49.45 105.1 51.75 105.75 M64.75 121.75 L63.75 121.75 64.75 121.75 M28.75 148.75 L27.75 148.75 25.2 148.6 27.75 148.75 28.75 148.75 M37.75 128.75 L35.75 128.85 Q32.9 129.1 30.6 128.75 32.9 129.1 35.75 128.85 L37.75 128.75 M21.75 176.7 Q19.75 176.2 17.95 175.3 L16.55 174.65 17.95 175.3 Q19.75 176.2 21.75 176.7 M60.0 183.45 L61.75 184.7 60.0 183.45 M48.75 146.75 L47.75 146.8 Q44.85 147.2 45.75 143.75 44.85 147.2 47.75 146.8 L48.75 146.75 M39.75 180.7 L38.75 180.6 Q34.5 179.95 36.75 176.7 34.5 179.95 38.75 180.6 L39.75 180.7 M72.65 197.9 L73.75 198.7 72.65 197.9 M78.75 200.7 L78.75 199.7 78.75 198.7 78.75 199.7 78.75 200.7 M205.75 141.75 L204.75 141.75 205.75 141.75 M183.9 170.5 L177.75 166.75 183.9 170.5 M225.75 124.75 L224.75 124.75 223.75 124.75 224.75 124.75 225.75 124.75 M144.2 179.55 Q143.25 176.8 140.75 174.75 143.25 176.8 144.2 179.55 M120.75 171.75 L119.75 169.75 120.75 171.75 M86.75 170.75 L86.75 169.75 86.75 168.75 86.75 169.75 86.75 170.75 M87.0 185.9 Q88.25 184.2 89.75 180.7 88.25 184.2 87.0 185.9 M94.95 159.85 L95.75 158.75 94.95 159.85 M96.75 148.75 L96.75 147.75 96.75 148.75 M94.75 123.75 L94.75 124.75 94.75 123.75 M80.25 111.75 Q80.25 111.25 80.75 110.75 80.25 111.25 80.25 111.75" fill="#8cc67b" fill-rule="evenodd" stroke="none"/>
    <path d="M188.75 -144.25 Q184.5 -146.65 189.05 -151.95 201.15 -166.0 218.85 -170.9 238.45 -176.4 256.75 -168.2 261.9 -165.9 265.1 -161.55 L269.6 -156.15 Q279.45 -145.3 275.9 -131.45 275.2 -128.75 273.75 -126.2 266.75 -114.1 256.75 -104.25 M185.75 -154.25 Q190.25 -164.45 197.1 -174.0 L200.6 -178.35 Q213.85 -193.45 231.95 -200.75 235.75 -202.25 239.75 -203.2 258.7 -207.65 274.8 -197.4 291.35 -186.85 295.35 -167.2 299.05 -149.05 291.0 -132.1 L287.55 -124.3 279.7 -105.25 M245.75 2.75 Q246.9 0.45 249.55 -1.55 L251.6 -3.35 253.4 -5.5 Q258.9 -12.9 262.6 -21.3 270.45 -39.1 264.05 -57.35 L262.35 -62.1 261.05 -65.4 Q257.65 -73.1 253.75 -77.25 M257.75 -74.25 Q261.2 -75.25 265.0 -78.9 268.1 -81.9 269.25 -85.4 269.7 -86.75 269.7 -88.25 269.75 -91.4 266.95 -93.55 262.25 -97.25 255.75 -96.25 M251.6 -3.35 Q249.15 2.1 249.2 8.75 249.25 12.25 248.35 15.65 245.35 27.1 244.8 38.75 244.55 43.9 245.65 48.6 L246.75 48.7 248.2 48.95 250.05 49.3 250.85 49.5 252.95 50.05 253.0 50.1 Q261.75 52.75 269.05 59.4 L270.0 60.25 273.4 57.35 Q274.2 56.75 274.7 55.75 M266.7 63.75 L270.0 60.25 276.45 66.0 277.85 67.25 Q282.05 64.45 286.65 62.65 L288.7 61.75 M266.7 55.75 Q266.4 51.65 269.45 49.4 M252.75 50.75 L250.7 55.75 Q250.25 56.75 250.1 57.8 249.25 63.35 245.8 67.8 239.25 76.25 231.8 82.8 L229.6 84.5 Q221.5 89.9 214.7 97.7 213.75 98.75 212.55 99.15 209.15 100.35 205.85 102.9 193.65 112.45 178.75 113.75 169.95 114.45 161.75 112.85 L155.75 111.95 Q147.95 111.15 140.95 107.4 128.8 100.85 117.85 92.6 111.35 87.7 106.7 80.75 L105.6 78.6 Q104.1 77.3 103.75 74.75 100.6 74.95 102.4 72.5 104.1 70.1 103.8 66.75 L103.8 66.4 103.7 66.4 99.7 67.5 Q92.3 69.35 85.5 74.45 L81.85 76.9 75.75 80.75 77.05 82.55 Q77.9 83.85 79.75 84.75 M244.75 50.75 Q242.85 48.45 245.65 48.6 L246.8 52.4 246.8 51.75 Q247.05 49.3 248.2 48.95 M246.8 51.75 Q247.1 51.05 249.75 51.75 L249.75 52.75 Q249.75 53.75 249.4 53.9 L247.45 54.0 248.75 56.75 M249.4 53.9 L248.15 53.55 246.8 51.75 M247.45 54.0 L246.8 52.4 Q246.8 53.6 247.45 54.0 M275.7 68.75 L277.85 67.25 Q290.6 78.2 303.95 88.45 L304.5 88.85 304.55 88.9 304.6 88.95 Q307.55 87.3 310.7 85.75 L312.7 84.75 M280.7 81.75 Q281.75 83.7 284.7 81.75 286.2 80.75 287.8 79.95 M304.35 89.1 L304.55 88.95 304.6 88.95 Q317.1 98.6 326.9 111.1 L327.7 110.75 M304.7 101.75 L309.75 101.0 311.7 100.75 M240.75 117.75 Q243.75 120.85 245.05 124.65 245.25 125.25 245.75 125.75 M260.75 134.75 L263.05 142.65 263.7 143.75 M282.7 153.75 Q283.05 156.75 284.75 158.7 L285.7 159.75 M297.7 164.75 L297.7 165.75 297.7 166.75 M311.7 163.75 Q312.95 168.45 315.45 170.1 M315.7 110.75 L325.65 111.35 326.9 111.1 331.3 117.05 Q333.2 119.75 334.7 122.75 337.55 128.35 339.75 134.15 343.65 136.1 347.7 137.75 M322.7 116.75 Q320.45 120.55 325.0 123.25 326.7 124.25 328.65 124.9 L330.7 125.75 M332.7 127.75 Q333.2 130.6 336.8 132.6 L339.75 134.15 Q342.25 140.75 344.0 147.65 L348.8 153.7 349.7 154.75 M344.0 147.65 Q345.45 153.6 346.35 159.8 L347.0 163.9 Q351.25 169.3 356.65 173.8 359.35 176.05 362.7 175.7 M342.7 157.75 Q344.7 160.95 347.0 163.9 348.5 172.55 351.25 180.85 352.2 183.7 352.55 186.7 L353.8 197.4 Q354.45 195.95 355.7 194.7 L356.6 193.65 357.65 192.15 357.7 191.7 Q358.15 191.35 357.65 192.15 357.1 195.1 355.6 197.65 L355.2 198.35 354.95 198.65 355.7 198.6 357.8 198.35 359.75 198.4 Q362.5 198.9 364.7 197.7 M327.7 173.75 L328.7 174.75 329.7 175.7 M338.7 142.75 Q341.3 144.7 344.0 147.65 M355.7 178.7 Q357.2 184.05 361.45 188.0 L362.95 189.45 M296.7 93.75 Q300.3 91.3 304.35 89.1 M181.75 -159.25 Q181.55 -166.45 178.55 -173.15 176.95 -176.75 174.05 -179.55 L170.4 -182.85 166.85 -185.45 Q151.0 -195.35 131.75 -193.2 111.85 -191.0 97.7 -176.3 94.25 -172.75 91.1 -168.95 85.0 -161.6 82.7 -152.25 78.15 -133.6 85.1 -115.4 86.85 -110.9 89.55 -107.1 L92.75 -102.25 M183.75 -142.25 Q182.3 -148.7 177.85 -154.35 L175.85 -157.3 Q165.55 -174.5 145.7 -175.6 L139.75 -175.25 133.9 -173.8 Q123.75 -170.35 114.6 -164.5 104.5 -158.0 97.85 -148.2 90.1 -136.65 91.7 -122.25 93.05 -109.95 98.25 -98.45 99.25 -96.25 100.8 -94.3 L101.75 -93.25 M165.75 -110.25 Q165.3 -110.45 165.05 -110.6 165.6 -105.55 164.0 -100.15 L163.35 -98.45 Q162.25 -96.1 159.7 -94.3 149.85 -87.55 137.75 -88.0 128.05 -88.3 124.3 -97.05 123.25 -99.5 124.1 -102.15 127.1 -111.3 134.5 -118.5 L137.05 -120.9 Q139.15 -122.8 141.95 -123.15 143.25 -124.25 144.6 -124.65 149.2 -126.05 154.7 -125.05 159.6 -124.2 161.85 -120.3 164.3 -116.0 164.95 -111.35 165.35 -111.7 166.55 -112.05 L168.05 -112.85 Q169.25 -113.75 170.7 -114.35 180.05 -118.35 189.7 -116.0 194.75 -114.75 198.95 -112.65 L200.65 -111.95 201.75 -111.25 M165.05 -110.6 L164.95 -111.35 Q164.55 -111.0 165.05 -110.6 M212.75 -109.0 Q213.35 -110.85 214.75 -112.25 213.55 -113.05 213.05 -111.15 212.75 -109.95 212.75 -109.0 212.7 -106.7 214.3 -105.95 L214.25 -106.25 214.3 -106.7 214.3 -107.3 Q214.5 -111.15 218.75 -110.25 L218.7 -108.25 Q218.55 -106.05 216.8 -105.7 214.9 -103.7 214.75 -105.25 L214.3 -105.95 214.5 -105.9 214.25 -106.25 M215.75 -126.25 Q210.45 -125.25 207.55 -119.35 L205.8 -116.2 Q199.5 -105.95 203.15 -95.4 204.75 -90.75 209.7 -90.05 L213.8 -89.45 Q224.6 -87.75 232.5 -94.5 235.65 -97.2 236.65 -101.25 239.6 -112.8 231.5 -122.0 227.65 -126.35 221.7 -125.7 219.0 -125.4 216.65 -124.55 L214.95 -123.85 M149.55 -108.5 Q150.5 -110.05 152.75 -110.2 153.75 -110.25 153.85 -109.95 155.55 -105.0 150.75 -103.25 L150.45 -103.8 149.25 -103.95 148.75 -104.25 Q148.55 -107.05 149.55 -108.5 L149.6 -109.25 Q149.85 -111.05 151.65 -112.15 147.2 -109.55 146.4 -104.15 146.25 -103.25 146.85 -102.35 149.45 -98.45 153.9 -102.05 L155.3 -103.55 156.15 -105.05 Q157.4 -107.3 156.45 -110.15 155.45 -113.15 151.75 -112.25 L151.65 -112.15 M150.45 -103.8 Q149.7 -105.15 149.55 -106.75 L149.4 -106.35 149.25 -105.25 Q149.25 -104.75 148.75 -104.25 M150.45 -103.8 Q151.45 -104.0 152.3 -105.5 152.75 -106.25 152.75 -107.25 150.45 -109.5 149.55 -106.75 L149.55 -108.5 M158.75 -68.25 Q154.75 -70.8 154.35 -65.3 L154.15 -63.2 153.9 -59.25 Q153.7 -51.85 156.15 -45.4 156.75 -43.75 158.05 -42.55 161.5 -39.35 165.05 -36.65 166.25 -35.75 167.75 -35.25 177.25 -32.1 185.85 -36.05 192.15 -38.9 195.3 -44.95 L197.35 -48.5 Q200.65 -53.7 202.15 -59.4 203.1 -63.2 203.2 -67.25 L203.4 -70.3 Q203.75 -73.75 203.75 -77.25 M97.75 -4.25 Q95.7 -2.8 91.85 -3.6 91.25 -3.75 90.65 -4.05 83.4 -7.7 80.25 -15.45 79.75 -16.75 79.55 -18.2 L78.85 -22.25 Q78.15 -25.5 79.05 -28.45 79.75 -30.75 79.95 -33.25 81.1 -45.6 87.8 -56.25 L90.95 -61.45 Q88.4 -62.2 86.25 -64.7 85.75 -65.25 85.6 -66.2 85.25 -68.25 85.25 -70.25 L85.45 -73.3 Q86.6 -82.15 92.3 -88.75 92.75 -89.25 93.75 -89.2 99.9 -88.95 105.75 -87.25 M91.75 -61.25 L90.95 -61.45 91.9 -63.15 92.55 -64.35 M153.9 -59.25 Q149.3 -59.1 145.55 -55.5 L143.05 -52.95 Q136.9 -46.45 130.9 -39.15 129.75 -37.75 128.95 -36.15 128.25 -34.75 127.8 -33.25 127.05 -30.55 128.75 -30.25 M148.75 -35.25 Q144.25 -34.25 142.7 -29.25 L141.65 -26.3 Q141.25 -25.25 141.25 -24.25 141.25 -23.75 141.75 -23.25 M212.75 -109.0 Q211.95 -106.6 212.6 -103.45 212.75 -102.75 213.8 -102.6 218.15 -102.05 220.35 -106.45 220.75 -107.25 220.65 -108.25 220.15 -113.25 214.75 -112.25 M214.5 -105.9 L215.75 -105.65 216.8 -105.7 217.05 -106.0 Q218.25 -107.35 217.75 -109.25 214.5 -109.7 214.3 -106.7 M160.75 -29.25 Q158.75 -25.15 158.75 -20.25 L158.75 -19.25 M179.75 -29.25 Q179.7 -27.3 179.1 -26.05 178.25 -24.35 179.75 -23.25 M202.75 -59.25 Q208.45 -52.05 212.9 -43.35 L219.2 -30.45 221.4 -25.15 221.75 -23.25 221.75 -21.25 M197.75 -32.25 Q198.75 -29.75 200.1 -27.45 M70.75 76.75 Q73.45 77.95 75.75 80.75 66.85 86.6 58.65 93.4 59.95 95.1 62.7 95.95 L64.75 96.75 M57.75 91.75 Q58.05 92.65 58.65 93.4 L52.05 99.1 Q49.65 101.3 47.4 103.65 M47.65 103.9 Q49.45 105.1 51.75 105.75 M42.75 101.75 Q45.05 102.25 47.35 103.7 L47.4 103.65 M47.35 103.7 L47.65 103.9 M37.6 115.95 L42.75 115.8 43.75 115.75 M63.75 121.75 L64.75 121.75 M47.35 103.7 Q41.85 109.4 37.6 115.95 32.15 115.5 27.75 112.75 M30.6 128.75 L29.75 130.75 Q28.75 133.25 28.2 135.85 L25.2 148.6 27.75 148.75 28.75 148.75 M23.75 124.75 Q26.0 128.0 30.6 128.75 33.6 122.0 37.6 115.95 M30.6 128.75 Q32.9 129.1 35.75 128.85 L37.75 128.75 M8.75 160.75 L15.75 161.7 16.75 161.75 M7.75 166.75 Q8.65 170.9 13.55 173.2 L16.55 174.65 17.2 172.9 Q21.85 160.95 25.2 148.6 19.05 148.0 13.75 144.75 M16.55 174.65 L17.95 175.3 Q19.75 176.2 21.75 176.7 M16.55 174.65 Q14.5 180.1 12.85 185.75 10.6 193.55 8.65 201.2 11.6 204.7 11.75 209.6 L13.7 209.9 22.8 211.3 27.7 212.0 44.75 213.95 49.7 214.9 Q58.1 217.35 66.8 218.2 L76.75 218.9 115.75 220.5 132.8 219.9 154.75 218.85 Q164.6 219.05 173.75 217.65 183.6 216.15 193.75 215.95 203.0 215.8 211.65 213.3 L215.85 211.95 Q222.15 209.65 228.7 208.5 L248.7 205.3 255.85 204.2 261.75 203.65 282.75 202.1 289.7 201.65 310.7 201.2 312.75 201.6 Q317.7 203.45 322.75 201.85 L326.7 200.65 Q328.85 200.1 329.5 201.3 L330.55 202.05 Q335.35 204.05 340.0 201.15 340.7 200.7 341.65 200.45 L346.8 199.1 349.7 198.75 353.25 198.75 353.8 197.4 353.95 198.7 354.95 198.65 354.1 199.7 354.05 199.7 354.1 199.85 354.7 204.7 M36.75 176.7 Q34.5 179.95 38.75 180.6 L39.75 180.7 M45.75 143.75 Q44.85 147.2 47.75 146.8 L48.75 146.75 M61.75 184.7 L60.0 183.45 M133.75 20.75 Q132.05 21.05 132.2 23.8 L132.1 24.85 Q131.1 28.7 130.95 32.75 130.75 41.25 131.15 49.75 131.25 51.25 131.75 52.75 134.45 60.85 138.9 68.65 L139.75 69.75 147.15 76.25 Q147.75 76.75 148.75 76.65 154.3 76.15 158.95 73.0 L161.55 70.55 162.8 68.75 171.3 53.5 171.4 53.35 Q171.75 52.65 171.75 51.75 L171.9 53.45 Q173.1 63.85 182.8 70.7 192.3 77.4 200.45 68.45 203.0 65.65 204.2 61.9 207.95 49.65 208.9 36.75 209.45 29.55 210.75 22.75 M198.75 -8.25 L199.3 -5.35 199.3 -5.3 200.65 2.75 200.75 3.75 M147.5 -3.85 Q147.5 -3.3 150.7 -2.9 L152.8 -2.7 Q157.0 -2.4 160.75 -1.3 164.95 0.0 169.75 0.2 179.0 0.55 186.9 -1.8 L193.65 -3.6 Q195.55 -4.05 196.25 -4.75 196.75 -5.25 197.75 -5.25 L198.75 -5.25 M147.75 -5.25 Q147.6 -5.85 146.85 -4.15 L146.85 -4.1 146.1 -2.15 Q145.25 0.25 144.75 2.75 M95.75 -0.25 Q96.3 -1.05 99.0 3.6 101.2 7.3 102.15 11.65 102.75 14.25 103.65 16.8 105.4 21.55 105.3 26.75 L105.4 32.75 Q106.05 48.35 105.25 63.75 L105.25 63.9 105.15 65.95 105.75 65.75 M103.75 74.75 L103.65 73.75 Q103.45 70.0 104.8 71.4 L105.15 65.95 103.8 66.4 Q103.7 64.35 105.25 63.9 M105.75 72.75 L104.95 71.6 104.8 71.4 M104.75 74.75 Q104.85 76.8 105.6 78.6 M80.75 110.75 Q80.25 111.25 80.25 111.75 M94.75 124.75 L94.75 123.75 M96.75 147.75 L96.75 148.75 M95.75 158.75 L94.95 159.85 M89.75 180.7 Q88.25 184.2 87.0 185.9 M86.75 168.75 L86.75 169.75 86.75 170.75 M119.75 169.75 L120.75 171.75 M140.75 174.75 Q143.25 176.8 144.2 179.55 M223.75 124.75 L224.75 124.75 225.75 124.75 M177.75 166.75 L183.9 170.5 M204.75 141.75 L205.75 141.75 M78.75 198.7 L78.75 199.7 78.75 200.7 M73.75 198.7 L72.65 197.9 M8.65 201.2 L8.55 201.7 8.85 203.55 Q9.35 206.35 10.6 209.3 L11.75 209.6 11.75 209.7 10.75 209.65 9.8 209.45 Q8.8 209.2 8.4 208.5 L8.35 208.5 7.55 208.1 6.05 207.25 Q4.1 206.0 5.75 205.7 M8.55 201.7 L8.0 203.75 Q7.75 204.7 7.75 205.7 M10.75 209.65 L10.6 209.3 8.4 208.5 8.35 208.4 7.1 205.95 5.55 202.8 4.0 199.55 M8.65 201.2 L8.45 200.95 8.55 201.7 M354.05 199.7 L353.85 199.9 352.95 200.85 Q352.95 199.75 353.25 198.75 L353.95 198.7 354.05 199.7" fill="none" stroke="#000000" stroke-linecap="round" stroke-linejoin="round" stroke-width="2.75"/>
  </g>
</svg>
