<?xml version="1.0" encoding="UTF-8" standalone="no"?>
<svg xmlns:xlink="http://www.w3.org/1999/xlink" height="419.25px" width="340.65px" 
  xmlns="http://www.w3.org/2000/svg">
  <g transform="matrix(1.0, 0.0, 0.0, 1.0, -93.65, -9.05)">
    <path d="M184.0 130.0 Q181.1 131.45 179.75 135.9 L178.45 141.05 Q182.6 131.65 189.8 122.85 L191.25 121.25 Q195.35 116.95 189.05 115.7 188.0 115.5 187.15 114.8 185.15 113.1 183.85 111.15 L183.75 111.05 Q171.9 112.05 167.95 101.0 166.5 97.0 165.95 92.85 164.0 78.3 167.5 64.1 169.85 54.5 174.7 45.85 184.4 28.45 202.15 19.35 210.2 15.2 218.9 12.65 227.35 10.15 236.0 10.4 L243.0 10.75 Q259.9 11.95 267.8 27.1 L269.25 29.85 Q271.5 34.15 272.55 38.65 L273.7 36.85 Q275.8 32.9 279.7 30.55 L286.15 26.25 Q302.75 14.45 323.0 15.5 332.1 15.95 340.95 18.2 355.95 22.0 366.2 33.85 369.45 37.6 371.7 42.15 374.7 48.2 374.2 55.0 L373.55 60.95 Q372.85 65.95 370.2 70.15 363.35 80.75 355.0 90.0 M198.0 93.0 Q196.0 92.5 194.55 91.3 193.0 90.0 191.95 88.0 189.25 82.85 190.9 77.0 192.55 71.15 195.75 65.85 198.0 62.0 200.4 58.25 205.65 50.15 212.3 43.3 218.05 37.4 226.05 35.3 L232.0 33.9 Q252.8 29.75 265.25 46.8 L267.5 50.3 269.7 53.35 Q272.3 56.3 273.35 59.75 274.3 57.05 276.85 54.8 291.3 42.35 310.05 41.2 313.5 41.0 317.0 42.05 328.8 45.6 337.35 54.7 L341.95 59.05 Q348.8 64.8 347.45 73.9 347.0 77.0 345.95 79.95 341.95 91.0 336.0 101.0 M342.0 123.0 Q341.95 126.65 345.15 124.15 346.0 123.5 347.05 123.1 352.2 121.2 355.55 115.7 L356.25 114.05 356.5 112.0 356.35 110.9 Q355.75 108.25 354.2 106.8 347.55 100.65 339.0 104.0 M330.0 176.0 Q327.75 177.15 327.4 179.85 330.85 176.65 335.0 174.0 342.7 169.1 344.4 160.1 346.85 147.15 347.6 134.0 347.8 130.9 346.85 128.05 L346.0 126.0 M327.4 179.85 Q327.2 181.25 327.55 183.1 328.0 185.5 327.9 188.0 327.4 198.0 327.5 208.0 327.6 224.2 325.7 239.95 L324.95 247.0 Q330.3 250.85 336.85 256.15 344.3 262.2 352.85 266.3 362.1 270.8 370.75 276.3 373.45 278.0 375.95 280.0 391.15 292.25 408.05 301.85 415.2 306.0 420.45 312.4 420.95 313.0 420.95 314.0 421.05 333.65 423.4 353.05 L424.25 362.0 Q425.65 381.6 428.6 401.0 430.3 412.2 432.95 422.95 M324.95 247.0 L324.35 255.0 Q324.0 260.5 324.0 266.0 M273.0 41.0 L272.55 38.65 270.75 40.75 Q267.4 44.0 270.0 46.0 M228.0 82.0 Q228.0 81.0 228.5 80.1 221.05 80.9 217.6 88.85 216.4 91.65 215.8 94.95 214.8 100.75 218.0 105.0 219.5 107.0 221.45 108.4 223.0 109.5 225.05 109.85 234.7 111.55 242.85 106.75 245.0 105.5 246.95 103.95 256.2 96.75 254.25 85.1 254.0 83.5 252.85 82.1 243.45 70.5 230.9 77.8 229.2 78.8 228.5 80.1 L230.0 80.0 M257.0 90.0 Q260.35 86.5 266.95 87.3 L270.0 88.0 289.0 94.0 M274.0 64.0 Q273.95 61.8 273.35 59.75 L273.0 61.0 M302.0 81.0 Q299.95 78.95 297.1 81.15 290.75 86.2 289.35 95.05 288.5 100.25 290.9 105.05 295.4 114.25 305.1 111.25 L309.8 109.55 Q316.9 106.6 321.2 100.1 324.95 94.45 324.75 88.0 324.6 83.85 320.95 81.05 315.35 76.7 308.0 76.2 305.0 76.0 302.3 76.9 302.0 77.0 302.0 78.0 M302.1 98.7 Q305.75 99.9 307.45 97.3 308.0 96.5 308.9 95.85 312.5 93.1 309.6 89.3 309.0 88.5 307.95 88.45 305.5 88.25 304.15 89.2 304.6 89.2 305.05 89.55 L306.0 89.35 Q308.75 89.25 308.9 92.0 308.95 93.75 308.05 94.45 308.2 96.55 306.0 96.85 303.65 97.15 303.0 95.8 L302.4 95.5 Q300.1 93.65 302.0 91.95 L302.75 90.9 Q303.2 89.8 304.15 89.2 302.85 89.1 301.1 91.1 297.2 95.65 300.9 98.1 L302.1 98.7 M306.0 91.0 L305.05 89.55 Q303.65 90.1 303.1 92.05 302.35 94.6 303.0 95.8 L303.95 95.85 Q304.15 92.15 307.0 92.0 L307.7 93.1 308.05 94.45 307.8 94.6 Q306.0 95.5 303.95 95.85 L306.0 96.85 M183.75 111.05 Q182.2 108.65 181.65 105.85 181.5 105.0 182.05 104.0 183.8 100.75 187.85 98.7 192.1 96.5 197.0 96.9 200.75 97.2 202.0 101.0 M240.8 92.8 L242.0 91.0 241.65 90.65 240.75 91.75 240.1 92.4 240.8 92.8 Q240.75 96.75 236.0 96.0 L236.2 94.2 236.05 94.05 235.95 94.05 Q234.5 94.5 234.1 95.05 M241.65 90.65 Q240.1 89.1 237.95 90.95 236.8 91.9 236.35 93.6 238.05 91.45 240.1 92.4 L239.05 93.1 Q237.35 94.15 236.2 94.1 L236.2 94.2 Q237.95 96.0 240.8 92.8 M241.65 90.65 L242.0 90.0 Q236.4 88.9 236.0 94.0 L236.35 93.6 236.2 94.1 236.05 94.05 236.0 94.0 235.95 94.05 Q234.7 93.75 234.25 91.95 234.0 91.0 234.5 90.5 L238.0 87.0 Q233.05 86.9 232.3 92.05 231.55 97.6 237.0 97.75 244.5 97.95 244.05 90.0 243.85 86.05 239.05 86.4 238.0 86.5 238.0 87.0 M243.0 136.0 Q239.4 137.45 239.5 142.0 L239.25 145.05 Q237.05 158.6 245.4 168.65 246.5 170.0 248.1 170.85 258.05 176.25 268.95 172.8 272.8 171.55 276.2 169.35 279.9 166.95 282.65 163.7 289.9 155.05 291.3 144.05 L291.9 139.0 292.0 137.0 M201.0 194.0 Q201.0 189.5 200.2 185.15 200.0 184.0 198.85 183.2 194.4 180.1 189.2 177.6 188.0 177.0 186.95 176.05 175.35 165.3 177.1 149.0 177.5 145.4 178.2 142.05 L178.45 141.05 M241.0 176.0 Q238.05 179.7 238.9 185.0 L239.0 186.0 M230.0 169.0 Q226.8 173.45 224.7 179.9 L224.0 181.0 M236.0 146.0 Q225.7 152.3 217.7 163.8 216.0 166.25 215.65 168.95 215.4 171.15 217.0 171.0 M259.0 179.0 Q257.65 180.65 258.3 183.95 258.5 185.0 259.0 186.0 M272.0 180.0 L272.0 182.0 272.0 183.0 M285.0 176.0 Q284.5 177.0 284.5 178.0 M323.0 196.0 Q318.6 193.9 320.6 188.2 321.0 187.0 321.85 185.9 324.35 182.65 327.4 179.85 M293.0 146.0 Q295.2 150.1 299.5 154.5 301.0 156.0 302.0 158.0 305.65 165.5 306.0 174.0 M293.0 170.0 Q294.6 171.55 294.1 174.0 L294.0 175.0 M201.0 255.0 Q202.5 253.35 199.85 254.75 L197.05 256.15 Q180.3 263.65 164.2 273.35 L158.75 276.6 Q153.35 279.85 148.1 283.2 132.75 293.05 119.2 305.2 117.65 306.65 117.5 310.0 L117.45 311.0 Q116.5 330.65 111.4 350.1 L108.65 360.9 Q104.2 378.75 100.7 396.9 L96.4 418.05 Q95.45 422.45 95.0 426.95 M259.0 265.0 L258.9 265.25 Q256.6 270.3 259.7 275.2 262.4 279.5 266.2 282.8 268.75 285.05 271.95 285.35 L276.05 285.7 Q279.25 286.05 282.15 284.2 L285.85 281.75 Q293.95 276.25 298.4 267.2 301.55 260.8 304.05 254.0 306.9 246.35 306.55 238.0 L306.2 234.95 306.0 233.0 M219.0 225.0 Q216.75 226.75 216.75 231.0 216.75 239.7 217.7 248.05 218.9 258.7 223.85 268.05 229.3 278.4 239.15 282.65 241.5 283.7 243.3 282.4 244.5 281.5 245.95 280.85 255.15 276.6 258.15 267.05 L258.9 265.25 M192.0 184.0 Q195.75 194.25 196.75 205.95 197.0 209.0 197.65 212.05 198.5 216.0 198.9 220.0 L203.0 258.0 Q201.3 258.8 202.3 261.9 204.0 267.3 206.3 272.85 L207.8 276.1 208.95 279.0 Q213.55 294.2 227.1 301.8 235.15 306.3 243.9 308.45 L254.95 308.8 264.95 307.65 Q266.5 307.5 267.9 306.8 276.8 302.3 284.8 296.7 289.45 293.45 293.3 289.25 298.1 284.0 302.4 278.3 L303.75 276.75 306.25 274.3 Q311.4 269.35 315.25 264.2 L317.85 260.85 Q318.5 260.0 319.3 259.45 320.0 259.0 321.0 259.0" fill="none" stroke="#000000" stroke-linecap="round" stroke-linejoin="round" stroke-width="2.75"/>
    <path d="M246.0 193.95 Q234.95 197.2 233.05 208.0 232.1 213.35 235.55 217.4 236.5 218.5 237.15 219.9 239.35 224.45 244.05 225.75 L246.0 226.05 Q256.55 226.85 263.75 219.75 L266.05 217.05 Q269.95 211.55 270.85 205.0 271.7 199.0 268.5 194.65 266.45 192.55 262.0 192.7 L249.05 193.4 246.0 193.95 M268.5 194.65 Q267.45 193.25 266.0 192.0" fill="none" stroke="#000000" stroke-linecap="round" stroke-linejoin="round" stroke-width="2.75"/>
  </g>
</svg>
