<?xml version="1.0" encoding="UTF-8" standalone="no"?>
<svg xmlns:xlink="http://www.w3.org/1999/xlink" height="68.75px" width="238.6px" xmlns="http://www.w3.org/2000/svg">
  <g transform="matrix(1.0, 0.0, 0.0, 1.0, 0.0, 34.35)">
    <path d="M131.35 -12.35 L130.9 -11.65 Q128.6 -11.4 127.4 -10.35 128.6 -11.4 130.9 -11.65 L131.35 -12.35 M135.35 -1.35 Q134.85 -0.85 134.25 -0.65 131.6 0.3 128.4 1.65 131.6 0.3 134.25 -0.65 134.85 -0.85 135.35 -1.35 M134.35 11.65 Q133.1 12.85 130.4 12.7 129.4 12.65 128.9 12.15 126.4 9.8 126.7 4.65 126.9 1.65 127.25 -1.35 128.05 -7.6 130.9 -11.65 L132.35 -11.8 134.4 -12.1 136.35 -12.35 134.4 -12.1 132.35 -11.8 130.9 -11.65 Q128.05 -7.6 127.25 -1.35 126.9 1.65 126.7 4.65 126.4 9.8 128.9 12.15 129.4 12.65 130.4 12.7 133.1 12.85 134.35 11.65 M124.4 6.65 L115.45 7.05 113.35 7.2 Q109.9 7.45 109.55 4.65 109.05 0.1 111.1 -3.5 111.9 -4.85 112.25 -6.4 113.4 -11.55 115.4 -16.35 113.4 -11.55 112.25 -6.4 111.9 -4.85 111.1 -3.5 109.05 0.1 109.55 4.65 109.9 7.45 113.35 7.2 L115.45 7.05 124.4 6.65 M101.4 3.65 L99.4 3.7 93.35 4.45 91.7 4.2 Q90.9 3.65 90.9 2.65 90.85 -5.15 92.65 -12.3 L92.95 -14.35 Q93.05 -17.7 94.4 -19.35 93.05 -17.7 92.95 -14.35 L92.65 -12.3 Q90.85 -5.15 90.9 2.65 90.9 3.65 91.7 4.2 L93.35 4.45 99.4 3.7 101.4 3.65 M157.35 -16.35 L155.35 -16.35 142.35 -16.35 155.35 -16.35 157.35 -16.35 M193.35 -11.35 Q193.85 -10.35 193.95 -9.3 195.3 2.45 185.2 8.35 183.85 9.15 182.5 8.9 175.3 7.7 174.15 0.7 173.65 -2.25 172.35 -3.35 169.35 2.6 167.6 8.7 L167.0 10.5 Q165.7 13.75 167.35 11.65 165.7 13.75 167.0 10.5 L167.6 8.7 Q169.35 2.6 172.35 -3.35 173.65 -2.25 174.15 0.7 175.3 7.7 182.5 8.9 183.85 9.15 185.2 8.35 195.3 2.45 193.95 -9.3 193.85 -10.35 193.35 -11.35 M143.25 -0.15 L140.35 0.65 143.25 -0.15 Q143.45 -2.25 144.0 -4.15 144.85 -7.1 144.25 -10.35 143.65 -13.55 145.35 -14.35 143.65 -13.55 144.25 -10.35 144.85 -7.1 144.0 -4.15 143.45 -2.25 143.25 -0.15 147.6 -1.75 151.35 -5.35 L152.35 -6.35 151.35 -5.35 Q147.6 -1.75 143.25 -0.15 L143.15 0.65 142.4 8.65 Q141.75 14.55 144.8 17.15 145.35 17.65 146.3 17.5 151.3 16.6 152.35 11.65 151.3 16.6 146.3 17.5 145.35 17.65 144.8 17.15 141.75 14.55 142.4 8.65 L143.15 0.65 143.25 -0.15 M111.65 23.9 L38.3 17.45 Q25.75 16.5 13.8 12.95 -3.65 7.8 1.0 -8.7 2.65 -14.6 8.4 -17.1 15.55 -31.4 32.95 -29.9 53.25 -28.2 72.55 -30.95 L98.4 -34.35 Q157.9 -34.9 216.25 -22.95 242.05 -17.65 238.05 6.75 235.3 23.2 217.45 28.25 187.2 36.7 155.75 33.55 136.5 31.65 118.15 26.65 114.75 25.75 111.65 23.9 M47.4 -17.35 Q47.5 -10.25 44.4 -4.35 43.9 -3.35 43.35 -3.35 40.9 -3.25 39.55 -4.5 32.4 -11.25 37.4 -19.35 32.4 -11.25 39.55 -4.5 40.9 -3.25 43.35 -3.35 43.9 -3.35 44.4 -4.35 47.5 -10.25 47.4 -17.35 M31.4 -18.35 L31.2 -15.35 Q30.8 -11.9 30.75 -8.35 30.75 -6.15 29.8 -4.15 L28.95 -2.6 Q25.6 3.1 21.6 -1.55 L20.25 -3.2 Q14.15 -11.1 20.4 -18.35 14.15 -11.1 20.25 -3.2 L21.6 -1.55 Q25.6 3.1 28.95 -2.6 L29.8 -4.15 Q30.75 -6.15 30.75 -8.35 30.8 -11.9 31.2 -15.35 L31.4 -18.35 M74.55 -6.1 L72.4 -4.35 74.55 -6.1 M83.4 3.65 L82.3 4.55 Q81.4 5.15 80.65 5.9 79.3 7.15 77.5 6.35 72.95 4.35 70.75 -0.5 67.3 -8.3 69.35 -16.1 66.5 -15.7 67.4 -14.35 66.5 -15.7 69.35 -16.1 L69.45 -16.1 71.4 -16.25 77.35 -16.7 80.4 -17.35 77.35 -16.7 71.4 -16.25 69.45 -16.1 69.35 -16.1 Q67.3 -8.3 70.75 -0.5 72.95 4.35 77.5 6.35 79.3 7.15 80.65 5.9 81.4 5.15 82.3 4.55 L83.4 3.65 M53.4 -19.35 Q58.05 -18.45 61.3 -14.25 64.15 -10.6 63.2 -5.4 62.35 -1.15 59.6 2.8 58.35 4.6 56.25 5.2 50.85 6.85 51.65 1.7 L52.1 -1.4 52.65 -5.3 Q52.9 -7.35 52.8 -9.35 52.65 -13.85 54.4 -17.35 52.65 -13.85 52.8 -9.35 52.9 -7.35 52.65 -5.3 L52.1 -1.4 51.65 1.7 Q50.85 6.85 56.25 5.2 58.35 4.6 59.6 2.8 62.35 -1.15 63.2 -5.4 64.15 -10.6 61.3 -14.25 58.05 -18.45 53.4 -19.35" fill="#7489fe" fill-rule="evenodd" stroke="none"/>
    <path d="M145.35 -14.35 Q143.65 -13.55 144.25 -10.35 144.85 -7.1 144.0 -4.15 143.45 -2.25 143.25 -0.15 147.6 -1.75 151.35 -5.35 L152.35 -6.35 M143.25 -0.15 L143.15 0.65 142.4 8.65 Q141.75 14.55 144.8 17.15 145.35 17.65 146.3 17.5 151.3 16.6 152.35 11.65 M140.35 0.65 L143.25 -0.15 M167.35 11.65 Q165.7 13.75 167.0 10.5 L167.6 8.7 Q169.35 2.6 172.35 -3.35 173.65 -2.25 174.15 0.7 175.3 7.7 182.5 8.9 183.85 9.15 185.2 8.35 195.3 2.45 193.95 -9.3 193.85 -10.35 193.35 -11.35 M142.35 -16.35 L155.35 -16.35 157.35 -16.35 M94.4 -19.35 Q93.05 -17.7 92.95 -14.35 L92.65 -12.3 Q90.85 -5.15 90.9 2.65 90.9 3.65 91.7 4.2 L93.35 4.45 99.4 3.7 101.4 3.65 M115.4 -16.35 Q113.4 -11.55 112.25 -6.4 111.9 -4.85 111.1 -3.5 109.05 0.1 109.55 4.65 109.9 7.45 113.35 7.2 L115.45 7.05 124.4 6.65 M136.35 -12.35 L134.4 -12.1 132.35 -11.8 130.9 -11.65 Q128.05 -7.6 127.25 -1.35 126.9 1.65 126.7 4.65 126.4 9.8 128.9 12.15 129.4 12.65 130.4 12.7 133.1 12.85 134.35 11.65 M128.4 1.65 Q131.6 0.3 134.25 -0.65 134.85 -0.85 135.35 -1.35 M127.4 -10.35 Q128.6 -11.4 130.9 -11.65 L131.35 -12.35 M67.4 -14.35 Q66.5 -15.7 69.35 -16.1 L69.45 -16.1 71.4 -16.25 77.35 -16.7 80.4 -17.35 M54.4 -17.35 Q52.65 -13.85 52.8 -9.35 52.9 -7.35 52.65 -5.3 L52.1 -1.4 51.65 1.7 Q50.85 6.85 56.25 5.2 58.35 4.6 59.6 2.8 62.35 -1.15 63.2 -5.4 64.15 -10.6 61.3 -14.25 58.05 -18.45 53.4 -19.35 M69.35 -16.1 Q67.3 -8.3 70.75 -0.5 72.95 4.35 77.5 6.35 79.3 7.15 80.65 5.9 81.4 5.15 82.3 4.55 L83.4 3.65 M72.4 -4.35 L74.55 -6.1 M20.4 -18.35 Q14.15 -11.1 20.25 -3.2 L21.6 -1.55 Q25.6 3.1 28.95 -2.6 L29.8 -4.15 Q30.75 -6.15 30.75 -8.35 30.8 -11.9 31.2 -15.35 L31.4 -18.35 M37.4 -19.35 Q32.4 -11.25 39.55 -4.5 40.9 -3.25 43.35 -3.35 43.9 -3.35 44.4 -4.35 47.5 -10.25 47.4 -17.35" fill="none" stroke="#000000" stroke-linecap="round" stroke-linejoin="round" stroke-width="2.75"/>
  </g>
</svg>
