<?xml version="1.0" encoding="UTF-8" standalone="no"?>
<svg xmlns:xlink="http://www.w3.org/1999/xlink" height="201.15px" width="361.5px" xmlns="http://www.w3.org/2000/svg">
  <g transform="matrix(1.0, 0.0, 0.0, 1.0, 180.75, 100.55)">
    <path d="M133.45 -38.45 L138.05 -32.5 Q139.75 -30.3 140.8 -28.1 L142.05 -25.9 142.4 -25.4 Q145.95 -20.15 149.0 -14.65 146.3 -14.85 143.65 -16.0 146.3 -14.85 149.0 -14.65 151.7 -9.85 154.0 -4.8 152.35 -5.95 151.2 -7.7 152.35 -5.95 154.0 -4.8 156.45 0.55 158.5 6.1 L161.35 14.8 157.65 14.0 Q154.4 12.9 155.55 10.15 154.4 12.9 157.65 14.0 L161.35 14.8 165.15 27.9 167.45 36.3 169.0 42.05 Q168.15 45.35 170.3 47.4 L173.35 62.35 174.95 72.7 173.45 76.9 Q172.9 78.4 173.4 80.05 173.95 82.0 174.85 83.9 L176.35 87.25 176.8 88.0 176.15 89.75 Q175.05 92.1 171.6 90.2 170.7 89.75 169.65 89.85 164.75 90.55 160.85 88.95 159.9 88.55 158.8 88.5 149.2 88.05 140.45 90.05 130.25 92.3 119.8 92.95 L107.9 93.75 104.6 93.9 Q83.1 93.9 62.3 96.4 L54.75 97.05 34.1 98.8 27.65 99.25 Q6.5 99.25 -14.6 98.7 L-18.95 98.1 Q-27.3 96.1 -36.3 96.65 L-43.85 97.3 -47.15 97.45 Q-48.75 97.45 -50.4 96.85 -59.1 93.75 -68.8 93.85 -76.9 93.95 -84.05 92.65 -90.0 91.55 -95.9 91.5 -102.65 91.4 -108.9 89.85 L-119.9 86.7 Q-121.4 86.15 -123.0 86.05 -128.2 85.65 -132.65 83.5 -137.5 81.05 -142.65 79.65 L-146.75 78.5 -151.3 76.9 Q-155.6 75.05 -159.95 73.55 -164.3 72.15 -166.4 69.6 -167.8 68.1 -170.65 67.8 L-171.05 67.7 Q-171.25 66.4 -171.1 64.7 L-170.75 61.55 Q-170.2 56.4 -169.3 51.35 -168.25 45.5 -166.75 39.75 L-165.55 35.1 -165.55 35.05 Q-162.65 23.75 -159.9 12.05 -157.8 12.25 -155.6 12.05 -154.45 11.95 -153.35 11.35 -154.45 11.95 -155.6 12.05 -157.8 12.25 -159.9 12.05 L-158.2 4.7 -156.45 -2.85 -155.5 -6.5 -151.95 -16.4 Q-149.45 -16.1 -146.9 -16.4 L-143.55 -16.95 -141.45 -17.2 -143.55 -16.95 -146.9 -16.4 Q-149.45 -16.1 -151.95 -16.4 L-146.55 -30.7 -144.4 -36.1 -143.75 -37.5 -140.85 -42.3 -136.8 -47.75 -132.8 -52.25 -132.75 -52.25 Q-132.25 -52.25 -131.7 -51.65 -132.25 -52.25 -132.75 -52.25 L-132.8 -52.3 -125.0 -60.1 Q-118.65 -66.05 -111.7 -71.0 L-105.5 -75.15 -105.4 -75.2 -102.45 -76.75 Q-99.25 -78.3 -96.85 -79.9 L-95.55 -80.85 Q-94.85 -81.4 -93.8 -81.65 L-91.55 -82.3 Q-87.5 -83.6 -82.75 -85.65 L-78.4 -87.4 -73.2 -88.85 -70.95 -89.55 Q-65.15 -91.85 -59.0 -92.05 -58.55 -92.1 -57.7 -91.2 -54.1 -87.45 -49.25 -86.6 -44.65 -85.8 -40.8 -83.45 L-33.95 -79.35 Q-31.55 -77.9 -28.7 -77.55 -18.7 -76.35 -9.2 -74.25 -4.0 -73.15 1.6 -73.55 L4.95 -73.8 16.85 -73.4 Q23.2 -72.3 28.85 -75.25 30.35 -76.05 32.05 -76.4 43.45 -78.95 53.55 -85.1 L62.1 -90.15 64.7 -91.6 65.6 -92.05 Q65.25 -95.95 68.75 -93.1 70.25 -91.8 73.1 -91.6 74.25 -91.5 75.25 -90.7 76.85 -89.5 78.65 -88.6 81.6 -87.2 85.05 -86.8 L86.3 -86.35 89.95 -84.35 94.95 -81.55 Q97.95 -79.85 100.55 -77.25 L103.3 -74.05 104.9 -72.15 106.5 -70.4 108.7 -67.95 111.4 -65.05 115.55 -60.45 125.05 -49.1 133.25 -38.65 132.85 -38.3 130.55 -37.7 Q126.6 -36.55 125.2 -38.6 126.6 -36.55 130.55 -37.7 L132.85 -38.3 133.45 -38.45 M158.5 6.1 Q155.7 4.6 153.4 1.85 155.7 4.6 158.5 6.1 M146.05 54.95 Q145.25 54.05 144.7 52.9 145.25 54.05 146.05 54.95 M165.15 27.9 Q160.2 25.9 156.65 20.85 160.2 25.9 165.15 27.9 M154.45 78.45 Q153.35 78.4 152.3 77.85 153.35 78.4 154.45 78.45 M-65.5 -78.8 Q-66.8 -78.25 -65.55 -80.2 -66.8 -78.25 -65.5 -78.8 M-74.0 -68.2 L-73.15 -69.5 -74.0 -68.2 M-64.75 -60.15 L-66.65 -57.6 -64.75 -60.15 M-73.4 -81.05 Q-76.1 -84.2 -78.4 -87.4 -76.1 -84.2 -73.4 -81.05 M-85.1 -69.5 L-86.25 -68.55 Q-87.8 -67.7 -89.4 -67.1 -87.8 -67.7 -86.25 -68.55 L-85.1 -69.5 M-95.9 -60.0 L-96.65 -61.3 Q-99.1 -69.8 -105.4 -75.2 -99.1 -69.8 -96.65 -61.3 L-95.9 -60.0 M-92.65 -75.45 Q-94.3 -76.65 -95.55 -78.15 L-96.85 -79.9 -95.55 -78.15 Q-94.3 -76.65 -92.65 -75.45 M-109.85 -69.7 L-111.7 -71.0 -109.85 -69.7 M-132.75 -43.35 Q-133.3 -42.75 -133.9 -42.7 L-140.85 -42.3 -133.9 -42.7 Q-133.3 -42.75 -132.75 -43.35 M-144.7 11.35 L-145.8 11.35 Q-146.9 11.35 -147.95 10.15 -146.9 11.35 -145.8 11.35 L-144.7 11.35 M-119.2 -14.8 L-117.6 -14.8 -119.2 -14.8 M-121.95 -31.45 L-123.0 -31.35 Q-125.9 -30.7 -125.2 -33.85 -125.9 -30.7 -123.0 -31.35 L-121.95 -31.45 M-129.5 -24.3 L-130.6 -23.15 -129.5 -24.3 M-137.1 -30.25 L-139.25 -30.2 -146.55 -30.7 -139.25 -30.2 -137.1 -30.25 M-119.75 -58.8 L-120.85 -58.9 -125.0 -60.1 -120.85 -58.9 -119.75 -58.8 M-107.75 -56.15 Q-110.55 -54.65 -108.9 -55.2 -110.55 -54.65 -107.75 -56.15 M-151.2 0.65 Q-153.7 1.4 -155.55 3.0 -156.85 4.1 -158.2 4.7 -156.85 4.1 -155.55 3.0 -153.7 1.4 -151.2 0.65 M-156.6 31.55 L-156.6 30.35 Q-156.7 27.5 -153.35 26.8 -156.7 27.5 -156.6 30.35 L-156.6 31.55 M-163.1 57.65 L-164.25 56.55 Q-167.2 54.4 -169.3 51.35 -167.2 54.4 -164.25 56.55 L-163.1 57.65 M-69.9 30.35 L-69.95 31.55 Q-70.4 35.1 -72.05 36.3 -70.4 35.1 -69.95 31.55 L-69.9 30.35 M-89.95 52.9 Q-89.95 53.45 -90.5 54.05 -89.95 53.45 -89.95 52.9 M-98.1 -5.3 L-98.1 -6.5 -98.1 -7.7 -98.1 -6.5 -98.1 -5.3 M-71.55 -26.7 L-69.9 -27.9 -71.55 -26.7 M-28.15 5.4 Q-28.2 4.8 -27.65 4.2 -28.2 4.8 -28.15 5.4 M-29.8 -31.45 L-30.45 -32.7 Q-30.9 -35.9 -30.9 -33.85 -30.9 -35.9 -30.45 -32.7 L-29.8 -31.45 M-140.35 54.05 L-141.45 54.05 Q-144.75 53.95 -142.5 51.7 -144.75 53.95 -141.45 54.05 L-140.35 54.05 M-131.95 32.9 Q-133.0 31.25 -132.75 28.0 -133.0 31.25 -131.95 32.9 M-136.0 28.0 L-135.9 26.8 Q-135.3 23.55 -137.1 23.25 -135.3 23.55 -135.9 26.8 L-136.0 28.0 M-167.45 67.15 L-168.55 65.95 Q-171.0 63.35 -170.45 61.55 -169.95 59.75 -166.35 58.85 -169.95 59.75 -170.45 61.55 -171.0 63.35 -168.55 65.95 L-167.45 67.15 M66.45 -92.55 L65.6 -92.05 66.45 -92.55 M75.5 -61.8 L78.6 -62.35 75.5 -61.8 M69.4 -43.95 Q68.65 -45.25 71.0 -44.5 68.65 -45.25 69.4 -43.95 M59.2 -69.7 L57.95 -70.55 Q55.1 -72.7 59.1 -73.05 55.1 -72.7 57.95 -70.55 L59.2 -69.7 M107.3 -39.75 Q107.3 -40.35 107.85 -40.95 107.3 -40.35 107.3 -39.75 M108.7 -67.95 L101.35 -61.15 108.7 -67.95 M93.75 60.0 L92.6 60.8 91.8 60.95 92.6 60.8 93.75 60.0 M73.1 23.05 L75.35 22.05 73.1 23.05 M94.85 -27.9 L95.95 -27.9 94.85 -27.9 M105.7 11.35 L104.05 10.75 Q105.25 10.3 104.6 7.8 105.25 10.3 104.05 10.75 L105.7 11.35 M133.85 12.55 L133.0 13.85 133.85 12.55 M118.7 -18.35 Q118.15 -18.4 117.6 -19.55 116.1 -18.85 116.55 -14.8 116.1 -18.85 117.6 -19.55 118.15 -18.4 118.7 -18.35 M142.05 -25.9 Q138.15 -25.35 134.0 -26.1 129.85 -26.75 126.3 -29.05 129.85 -26.75 134.0 -26.1 138.15 -25.35 142.05 -25.9 M38.25 46.25 Q37.15 45.5 36.3 43.4 37.15 45.5 38.25 46.25 M3.7 39.25 Q1.8 39.7 2.7 36.3 1.8 39.7 3.7 39.25 M27.65 -18.35 L27.65 -17.2 27.65 -14.8 27.65 -17.2 27.65 -18.35 M42.3 -21.35 Q43.05 -21.0 43.9 -23.15 43.05 -21.0 42.3 -21.35 M21.15 14.3 Q21.65 14.3 22.25 13.7 21.65 14.3 21.15 14.3 M8.15 -44.5 L7.05 -44.5 Q5.95 -44.55 5.55 -43.95 3.7 -41.55 2.7 -43.35 3.7 -41.55 5.55 -43.95 5.95 -44.55 7.05 -44.5 L8.15 -44.5 M100.55 -77.25 Q94.8 -72.65 89.45 -67.1 94.8 -72.65 100.55 -77.25 M82.95 -75.45 Q85.75 -80.3 89.95 -84.35 85.75 -80.3 82.95 -75.45 M110.05 -58.8 Q112.95 -59.0 115.55 -60.45 112.95 -59.0 110.05 -58.8 M91.8 60.95 L90.5 61.1 89.55 61.2 91.8 60.95 Q93.6 61.0 94.85 62.4 93.6 61.0 91.8 60.95 M-29.8 81.4 L-29.8 82.6 -29.8 81.4 M49.8 69.35 Q49.3 67.75 49.35 65.95 49.3 67.75 49.8 69.35 M129.0 42.8 Q131.4 40.6 132.8 43.4 131.4 40.6 129.0 42.8" fill="#8cc67b" fill-rule="evenodd" stroke="none"/>
    <path d="M133.45 -38.45 L138.05 -32.5 Q139.75 -30.3 140.8 -28.1 L142.05 -25.9 143.75 -26.2 147.95 -26.7 M142.05 -25.9 L142.4 -25.4 Q145.95 -20.15 149.0 -14.65 152.8 -14.35 156.7 -15.8 M143.65 -16.0 Q146.3 -14.85 149.0 -14.65 151.7 -9.85 154.0 -4.8 155.6 -3.75 157.75 -3.35 160.1 -2.9 162.05 -1.75 M151.2 -7.7 Q152.35 -5.95 154.0 -4.8 156.45 0.55 158.5 6.1 160.65 7.3 163.15 7.7 L164.2 7.8 M158.5 6.1 L161.35 14.8 164.2 14.9 M155.55 10.15 Q154.4 12.9 157.65 14.0 L161.35 14.8 165.15 27.9 Q167.75 28.95 170.75 29.1 L171.8 29.15 M153.4 1.85 Q155.7 4.6 158.5 6.1 M165.15 27.9 L167.45 36.3 169.0 42.05 170.3 47.4 171.65 48.45 Q173.95 49.9 176.15 51.7 M144.7 52.9 Q145.25 54.05 146.05 54.95 M170.3 47.4 L173.35 62.35 174.95 72.7 Q176.9 67.4 179.4 62.4 M169.0 42.05 Q168.15 45.35 170.3 47.4 M156.65 20.85 Q160.2 25.9 165.15 27.9 M174.95 72.7 L175.45 76.6 Q175.6 77.85 176.15 79.05 178.15 83.55 176.8 88.0 L177.25 88.55 M176.8 88.0 L176.15 89.75 Q175.05 92.1 171.6 90.2 170.7 89.75 169.65 89.85 164.75 90.55 160.85 88.95 159.9 88.55 158.8 88.5 149.2 88.05 140.45 90.05 130.25 92.3 119.8 92.95 L107.9 93.75 104.6 93.9 Q83.1 93.9 62.3 96.4 L54.75 97.05 34.1 98.8 27.65 99.25 Q6.5 99.25 -14.6 98.7 L-18.95 98.1 Q-27.3 96.1 -36.3 96.65 L-43.85 97.3 -47.15 97.45 Q-48.75 97.45 -50.4 96.85 -59.1 93.75 -68.8 93.85 -76.9 93.95 -84.05 92.65 -90.0 91.55 -95.9 91.5 -102.65 91.4 -108.9 89.85 L-119.9 86.7 Q-121.4 86.15 -123.0 86.05 -128.2 85.65 -132.65 83.5 -137.5 81.05 -142.65 79.65 L-146.75 78.5 -151.3 76.9 Q-155.6 75.05 -159.95 73.55 -164.3 72.15 -166.4 69.6 -167.8 68.1 -170.65 67.8 L-171.05 67.7 -170.9 68.55 Q-169.5 70.3 -167.45 70.7 M174.95 72.7 L173.45 76.9 Q172.9 78.4 173.4 80.05 173.95 82.0 174.85 83.9 L176.35 87.25 176.8 88.0 M152.3 77.85 Q153.35 78.4 154.45 78.45 M-78.4 -87.4 L-73.2 -88.85 -70.95 -89.55 Q-65.15 -91.85 -59.0 -92.05 -58.55 -92.1 -57.7 -91.2 -54.1 -87.45 -49.25 -86.6 -44.65 -85.8 -40.8 -83.45 L-33.95 -79.35 Q-31.55 -77.9 -28.7 -77.55 -18.7 -76.35 -9.2 -74.25 -4.0 -73.15 1.6 -73.55 L4.95 -73.8 16.85 -73.4 Q23.2 -72.3 28.85 -75.25 30.35 -76.05 32.05 -76.4 43.45 -78.95 53.55 -85.1 L62.1 -90.15 64.7 -91.6 65.6 -92.05 Q65.25 -95.95 68.75 -93.1 70.25 -91.8 73.1 -91.6 74.25 -91.5 75.25 -90.7 76.85 -89.5 78.65 -88.6 L85.15 -97.95 86.2 -99.2 M-96.85 -79.9 L-95.55 -80.85 Q-94.85 -81.4 -93.8 -81.65 L-91.55 -82.3 Q-87.5 -83.6 -82.75 -85.65 L-78.4 -87.4 -82.9 -94.45 M-73.15 -69.5 L-74.0 -68.2 M-65.55 -80.2 Q-66.8 -78.25 -65.5 -78.8 M-111.7 -71.0 L-105.5 -75.15 -105.4 -75.2 -102.45 -76.75 Q-99.25 -78.3 -96.85 -79.9 -99.8 -83.8 -101.35 -87.3 M-96.85 -79.9 L-95.55 -78.15 Q-94.3 -76.65 -92.65 -75.45 M-105.4 -75.2 Q-99.1 -69.8 -96.65 -61.3 L-95.9 -60.0 M-89.4 -67.1 Q-87.8 -67.7 -86.25 -68.55 L-85.1 -69.5 M-78.4 -87.4 Q-76.1 -84.2 -73.4 -81.05 M-66.65 -57.6 L-64.75 -60.15 M-119.75 -80.2 Q-116.9 -74.9 -111.7 -71.0 L-109.85 -69.7 M-125.0 -60.1 Q-118.65 -66.05 -111.7 -71.0 M-132.75 -52.25 Q-132.25 -52.25 -131.7 -51.65 M-132.75 -52.25 L-132.8 -52.25 -136.8 -47.75 -140.85 -42.3 -133.9 -42.7 Q-133.3 -42.75 -132.75 -43.35 M-139.25 -54.05 Q-136.2 -52.45 -132.8 -52.25 L-132.8 -52.3 -125.0 -60.1 Q-128.25 -61.4 -130.6 -63.55 M-146.55 -30.7 L-144.4 -36.1 -143.75 -37.5 -140.85 -42.3 Q-144.95 -42.15 -149.05 -42.15 M-108.9 -55.2 Q-110.55 -54.65 -107.75 -56.15 M-125.0 -60.1 L-120.85 -58.9 -119.75 -58.8 M-146.55 -30.7 L-139.25 -30.2 -137.1 -30.25 M-151.95 -16.4 Q-149.45 -16.1 -146.9 -16.4 L-143.55 -16.95 -141.45 -17.2 M-130.6 -23.15 L-129.5 -24.3 M-125.2 -33.85 Q-125.9 -30.7 -123.0 -31.35 L-121.95 -31.45 M-117.6 -14.8 L-119.2 -14.8 M-147.95 10.15 Q-146.9 11.35 -145.8 11.35 L-144.7 11.35 M-157.7 -19.55 Q-156.8 -17.2 -153.25 -16.6 L-151.95 -16.4 -146.55 -30.7 Q-150.75 -31.6 -154.45 -33.85 M-158.2 4.7 L-156.45 -2.85 -155.5 -6.5 -151.95 -16.4 M-159.9 12.05 Q-157.8 12.25 -155.6 12.05 -154.45 11.95 -153.35 11.35 M-159.9 12.05 L-158.2 4.7 Q-162.05 6.45 -166.35 4.2 M-158.2 4.7 Q-156.85 4.1 -155.55 3.0 -153.7 1.4 -151.2 0.65 M-169.6 8.95 Q-165.1 11.6 -159.9 12.05 -162.65 23.75 -165.55 35.05 L-165.55 35.1 -166.75 39.75 Q-168.25 45.5 -169.3 51.35 -167.2 54.4 -164.25 56.55 L-163.1 57.65 M-153.35 26.8 Q-156.7 27.5 -156.6 30.35 L-156.6 31.55 M-179.4 32.75 Q-174.25 36.05 -167.45 35.25 L-165.55 35.1 M-171.05 67.7 Q-171.25 66.4 -171.1 64.7 L-170.75 61.55 Q-170.2 56.4 -169.3 51.35 -170.7 49.35 -171.8 46.95 M-166.35 58.85 Q-169.95 59.75 -170.45 61.55 -171.0 63.35 -168.55 65.95 L-167.45 67.15 M-137.1 23.25 Q-135.3 23.55 -135.9 26.8 L-136.0 28.0 M-132.75 28.0 Q-133.0 31.25 -131.95 32.9 M-142.5 51.7 Q-144.75 53.95 -141.45 54.05 L-140.35 54.05 M-30.9 -33.85 Q-30.9 -35.9 -30.45 -32.7 L-29.8 -31.45 M-27.65 4.2 Q-28.2 4.8 -28.15 5.4 M-69.9 -27.9 L-71.55 -26.7 M-98.1 -7.7 L-98.1 -6.5 -98.1 -5.3 M-90.5 54.05 Q-89.95 53.45 -89.95 52.9 M-72.05 36.3 Q-70.4 35.1 -69.95 31.55 L-69.9 30.35 M89.95 -84.35 Q93.55 -87.9 98.15 -90.8 L100.25 -92.05 M65.6 -92.05 L66.45 -92.55 M78.65 -88.6 Q81.6 -87.2 85.05 -86.8 L86.3 -86.35 89.95 -84.35 94.95 -81.55 Q97.95 -79.85 100.55 -77.25 L104.5 -80.3 105.7 -81.35 M59.1 -73.05 Q55.1 -72.7 57.95 -70.55 L59.2 -69.7 M71.0 -44.5 Q68.65 -45.25 69.4 -43.95 M78.6 -62.35 L75.5 -61.8 M115.55 -60.45 L117.85 -62.05 Q120.0 -63.85 123.05 -64.75 M108.7 -67.95 L113.2 -71.9 114.35 -73.05 M100.55 -77.25 L103.3 -74.05 104.9 -72.15 106.5 -70.4 108.7 -67.95 111.4 -65.05 115.55 -60.45 125.05 -49.1 133.25 -38.65 133.45 -38.45 134.95 -38.6 M101.35 -61.15 L108.7 -67.95 M107.85 -40.95 Q107.3 -40.35 107.3 -39.75 M132.85 -38.3 L133.45 -38.45 M125.2 -38.6 Q126.6 -36.55 130.55 -37.7 L132.85 -38.3 M126.3 -55.2 L127.35 -55.2 M115.55 -60.45 Q112.95 -59.0 110.05 -58.8 M89.95 -84.35 Q85.75 -80.3 82.95 -75.45 M89.45 -67.1 Q94.8 -72.65 100.55 -77.25 M2.7 -43.35 Q3.7 -41.55 5.55 -43.95 5.95 -44.55 7.05 -44.5 L8.15 -44.5 M22.25 13.7 Q21.65 14.3 21.15 14.3 M43.9 -23.15 Q43.05 -21.0 42.3 -21.35 M27.65 -14.8 L27.65 -17.2 27.65 -18.35 M2.7 36.3 Q1.8 39.7 3.7 39.25 M36.3 43.4 Q37.15 45.5 38.25 46.25 M126.3 -29.05 Q129.85 -26.75 134.0 -26.1 138.15 -25.35 142.05 -25.9 M116.55 -14.8 Q116.1 -18.85 117.6 -19.55 118.15 -18.4 118.7 -18.35 M133.0 13.85 L133.85 12.55 M104.6 7.8 Q105.25 10.3 104.05 10.75 L105.7 11.35 M95.95 -27.9 L94.85 -27.9 M75.35 22.05 L73.1 23.05 M91.8 60.95 L92.6 60.8 93.75 60.0 M91.8 60.95 L89.55 61.2 90.5 61.1 91.8 60.95 Q93.6 61.0 94.85 62.4 M132.8 43.4 Q131.4 40.6 129.0 42.8 M49.35 65.95 Q49.3 67.75 49.8 69.35 M-29.8 82.6 L-29.8 81.4 M-171.8 69.55 L-171.8 67.15 -171.05 67.7 M-169.6 70.7 Q-170.5 69.95 -170.9 68.55 L-171.8 67.15" fill="none" stroke="#000000" stroke-linecap="round" stroke-linejoin="round" stroke-width="2.75"/>
  </g>
</svg>
