<?xml version="1.0" encoding="UTF-8" standalone="no"?>
<svg xmlns:xlink="http://www.w3.org/1999/xlink" height="314.5px" width="559.05px" xmlns="http://www.w3.org/2000/svg">
  <g transform="matrix(1.0, 0.0, 0.0, 1.0, 24.75, -14.75)">
    <path d="M484.95 40.0 Q481.6 39.8 485.8 41.35 L498.0 45.9 Q503.2 47.9 508.9 48.4 L523.0 49.6 532.95 50.0 M485.95 101.0 Q491.65 82.75 495.35 62.9 495.95 59.5 495.95 56.0 M390.95 38.0 Q403.1 38.75 415.0 40.6 426.8 42.45 438.95 42.1 L446.95 42.0 M407.95 106.0 Q405.95 98.35 407.45 89.9 L409.3 79.05 Q409.95 75.0 410.9 71.0 413.4 60.1 413.95 49.0 M463.95 32.0 Q461.2 49.15 456.45 66.85 L453.2 78.1 Q449.65 89.3 449.95 101.0 M375.95 32.0 Q374.7 29.65 374.75 34.0 L374.9 68.0 Q374.8 86.75 377.95 105.0 M314.0 50.0 L314.2 47.6 Q311.45 50.85 310.65 55.95 L309.35 64.05 Q306.15 84.55 321.7 97.15 324.0 99.0 327.1 99.55 333.25 100.6 338.8 97.6 342.7 95.45 345.1 92.05 350.5 84.5 348.55 75.1 346.0 62.8 338.25 52.8 332.6 45.45 323.85 42.45 L321.0 41.95 Q315.15 41.75 314.25 47.05 L314.2 47.6 Q316.75 44.45 321.0 43.0 M384.95 163.0 Q381.4 166.65 381.45 173.0 381.45 176.5 380.7 179.95 L372.95 216.0 370.55 227.15 Q369.95 230.0 369.95 233.0 369.95 235.5 370.6 237.8 370.95 239.0 371.95 240.0 M402.95 233.0 Q398.2 237.2 393.7 241.75 390.75 241.8 392.35 239.55 393.45 238.0 393.8 235.95 394.75 230.1 397.35 224.7 398.95 221.5 399.85 217.95 403.95 201.65 412.55 187.35 413.95 185.0 416.05 183.1 419.85 179.7 423.35 182.7 425.45 184.5 426.8 187.1 433.2 199.25 436.4 212.9 437.55 217.95 441.05 221.9 442.45 223.5 444.25 224.2 L448.9 224.6 Q455.1 223.55 458.15 218.15 L461.7 211.85 Q468.3 199.75 470.85 186.0 473.5 171.5 474.95 157.0 M331.0 166.0 Q322.85 172.9 318.65 183.9 316.6 189.35 314.8 194.95 309.8 210.9 312.65 226.9 313.0 229.0 314.25 230.85 319.75 239.05 329.95 237.75 L333.95 236.9 Q344.55 233.7 353.95 228.0 M230.0 44.0 Q230.55 42.8 233.15 46.9 243.75 63.3 248.4 82.9 L250.75 92.05 Q254.55 105.7 264.15 115.85 267.55 119.4 270.5 116.5 271.5 115.5 271.7 113.95 274.5 94.6 279.2 75.05 281.15 66.9 283.75 58.9 L285.0 54.0 M93.0 60.0 Q89.4 59.7 91.5 57.5 L93.2 55.1 Q99.1 43.6 109.05 35.05 113.95 30.9 119.25 27.4 128.65 21.2 138.9 26.15 143.6 28.4 146.1 32.95 155.35 49.45 159.4 67.9 161.95 79.45 162.85 91.0 L163.0 95.0 M185.0 206.0 L191.6 196.7 193.3 194.15 Q197.5 187.1 198.25 179.0 L198.6 174.0 Q198.75 168.95 197.85 164.05 194.1 144.05 176.8 133.3 L174.15 131.7 Q170.1 129.3 166.0 128.0 M162.0 124.0 Q166.5 122.65 170.25 119.25 175.85 114.2 172.6 108.2 170.55 104.45 166.05 102.8 157.35 99.65 151.0 106.0 M215.9 205.7 Q218.7 206.2 221.8 205.7 L224.2 198.1 Q230.7 179.5 240.7 162.8 243.75 157.65 249.15 156.75 250.5 156.5 251.5 157.5 253.0 159.0 253.9 161.05 260.55 176.1 251.55 189.7 250.0 192.0 248.0 194.0 242.6 199.45 235.15 201.6 L228.85 203.65 224.05 205.2 221.8 205.7 Q217.5 221.0 217.05 237.0 216.9 243.8 218.55 250.1 220.3 256.65 226.0 259.0 M277.0 180.0 Q272.75 184.05 271.75 189.95 L270.2 199.05 269.7 201.9 272.0 201.85 286.0 202.55 289.95 201.9 Q293.8 200.65 297.0 199.0 M278.0 180.0 Q278.3 173.45 286.05 174.3 288.0 174.5 290.0 174.35 297.2 173.85 304.0 172.0 M87.0 44.0 Q83.15 40.65 86.35 36.5 L88.5 33.3 90.6 29.75 Q95.75 21.5 105.1 18.2 119.25 13.25 133.0 20.0 136.0 21.5 138.9 23.15 145.5 26.9 150.3 32.75 L154.9 38.1 Q163.8 47.65 165.0 60.0 M115.7 84.95 Q114.55 95.5 123.4 101.4 125.0 102.5 127.05 102.7 139.15 104.0 146.1 94.05 L148.8 89.9 Q153.9 81.55 147.9 74.1 142.9 67.9 134.95 66.2 130.25 65.2 127.0 68.0 119.2 67.45 117.55 74.9 L116.5 80.1 115.7 84.95 M76.0 93.0 L72.5 92.5 Q80.75 85.15 91.1 83.7 L94.0 84.05 110.0 90.0 M139.1 80.15 L139.65 81.1 139.7 81.25 139.75 80.95 140.0 79.0 139.1 80.15 139.0 80.0 Q137.25 78.25 134.0 78.05 132.35 80.7 131.2 83.55 131.95 82.65 133.0 82.0 L132.7 83.9 132.2 85.1 Q131.25 87.0 129.4 87.05 129.15 87.95 129.05 89.0 L129.0 90.0 Q131.45 89.65 132.95 87.8 132.5 82.4 136.0 81.0 135.35 83.8 133.6 86.8 L132.95 87.8 132.95 88.0 133.0 89.0 Q135.3 89.1 136.8 88.1 136.1 86.6 136.75 84.9 137.75 82.0 139.1 80.15 M127.2 87.1 Q126.35 87.85 125.0 88.0 L125.75 85.95 Q126.0 85.0 126.4 84.2 L127.6 81.8 Q128.0 81.0 128.3 80.9 L129.2 81.0 Q130.05 79.85 131.0 79.0 131.0 81.35 130.0 83.0 128.5 84.0 128.3 85.05 128.0 86.35 127.2 87.1 128.4 87.05 129.3 86.4 130.65 81.2 134.0 78.05 L133.0 78.0 Q128.4 78.9 126.35 82.25 L123.45 87.25 Q123.0 88.0 123.25 88.95 124.25 93.05 129.05 92.15 L135.9 90.65 137.0 90.0 Q140.85 86.55 139.7 81.25 L139.35 83.05 Q139.1 85.2 138.3 86.55 138.5 87.5 137.9 87.9 L136.95 88.45 136.8 88.1 138.3 86.55 M130.0 83.0 Q129.85 81.35 129.2 81.0 127.35 83.45 126.15 87.05 L127.2 87.1 M129.3 86.4 L129.75 86.05 Q130.25 84.6 131.2 83.55 L131.0 84.0 129.75 86.05 129.4 87.05 129.1 87.05 129.3 86.4 M83.0 43.0 Q81.65 37.25 75.15 33.75 63.2 27.3 49.95 25.45 L43.0 24.9 Q23.55 24.5 6.0 33.0 -10.55 41.1 -18.0 58.0 -20.0 62.5 -21.55 67.15 -23.65 73.35 -23.35 80.0 -22.85 91.8 -13.0 99.0 M88.0 63.0 Q83.5 61.15 80.55 56.25 79.5 54.5 78.1 52.9 65.2 38.05 45.0 38.85 L39.05 39.4 Q34.05 40.05 29.85 42.75 12.8 53.7 3.75 71.85 -1.5 82.45 -3.7 94.05 -5.85 105.15 2.9 112.1 7.05 115.4 12.0 117.0 M41.0 86.0 Q39.0 83.4 36.05 87.05 27.35 97.95 32.7 112.1 36.9 123.05 48.05 124.8 55.7 126.0 61.7 122.5 63.5 121.5 64.9 119.9 72.1 111.55 69.85 100.05 67.85 89.9 59.5 83.65 58.0 82.5 55.95 82.3 48.0 81.5 42.0 87.0 M60.0 103.0 Q57.95 107.2 58.0 104.0 58.0 103.0 58.35 102.15 L61.0 96.0 Q58.0 102.25 55.0 106.0 55.0 104.25 55.45 102.7 53.95 104.95 52.0 107.0 L52.3 106.1 Q51.35 106.95 50.0 107.0 L50.05 106.0 50.3 103.9 Q48.75 105.85 47.0 107.0 48.3 104.55 49.95 102.2 L50.6 100.6 50.3 101.1 Q49.1 104.4 48.0 102.0 L49.65 98.25 49.6 98.2 49.1 99.05 Q47.4 102.15 44.5 102.9 44.0 103.6 43.65 104.4 45.15 108.15 49.9 109.35 L51.1 109.6 56.1 109.25 Q58.0 108.5 59.05 107.05 59.5 106.5 60.1 106.1 63.7 103.7 62.65 97.05 62.5 96.0 61.75 95.25 59.05 92.65 55.0 92.55 53.45 92.5 52.5 92.95 L51.95 93.95 50.1 97.25 49.65 98.25 50.75 100.25 51.15 99.05 Q51.5 98.0 52.25 97.25 L53.65 95.7 55.0 94.1 54.35 96.5 55.0 96.0 56.0 95.0 54.2 99.1 Q52.9 102.45 50.6 103.55 L50.3 103.9 50.35 103.65 49.0 104.0 49.95 102.2 51.4 100.2 51.5 100.0 51.1 100.2 50.6 100.6 50.75 100.25 M44.5 102.9 L44.0 103.0 Q45.8 98.25 48.0 95.0 L44.55 102.8 Q45.55 101.3 47.0 100.0 L47.9 98.95 Q49.05 97.35 49.6 98.2 L50.1 97.25 51.2 95.1 Q51.2 93.8 52.15 93.2 47.25 94.25 45.3 97.2 44.35 98.65 43.45 101.15 43.0 102.5 43.45 103.85 L43.65 104.4 Q43.25 105.15 43.0 106.0 M52.5 92.95 L52.4 93.05 51.2 95.1 M52.4 93.05 L52.15 93.2 M54.15 96.95 Q53.25 98.95 51.6 99.95 L51.4 100.2 Q50.7 101.7 50.35 103.65 L50.6 103.55 52.9 99.95 55.0 96.05 54.15 96.95 54.35 96.5 Q52.55 97.85 51.5 100.0 L51.6 99.95 Q52.8 98.4 54.15 96.95 M55.0 96.0 L55.0 96.05 M52.5 92.95 L53.0 92.0 52.4 93.05 M53.6 103.85 Q55.2 99.15 58.0 95.0 54.1 100.1 52.3 106.1 53.1 105.3 53.6 103.85 M44.55 102.8 L44.5 102.9 M80.0 143.0 Q77.55 142.1 75.75 140.25 72.65 144.2 74.15 149.25 75.0 152.0 75.45 154.95 77.25 167.6 81.4 179.85 83.0 184.6 86.75 187.35 94.0 192.65 102.0 188.0 118.9 178.3 123.3 159.05 L124.75 152.95 Q125.7 149.2 124.3 145.9 123.5 144.0 123.0 142.0 122.0 138.05 119.0 138.0 M8.0 171.0 Q5.0 170.3 6.8 166.9 L8.1 164.05 Q11.75 154.7 18.2 147.2 20.3 144.75 21.4 142.2 20.0 143.5 17.8 144.65 14.8 146.25 11.9 145.3 L10.15 144.65 Q5.6 142.95 3.05 139.95 0.35 136.7 3.7 133.7 L6.05 131.05 Q12.1 122.65 22.0 122.0 M33.0 220.0 Q26.3 220.85 21.55 216.5 L19.25 214.65 15.9 212.1 Q9.55 206.65 5.45 199.75 5.0 199.0 5.0 198.0 5.0 189.5 5.4 181.0 5.5 179.5 6.05 178.0 9.0 169.65 11.65 162.85 12.3 161.3 14.0 161.0 M74.0 153.0 Q73.3 150.7 70.9 152.9 64.05 159.35 61.5 169.9 L60.45 174.1 Q60.0 176.0 59.7 177.95 58.9 182.8 63.0 184.0 M125.0 145.0 Q123.9 146.4 127.8 149.25 129.5 150.5 130.9 152.1 L134.3 155.7 Q138.2 159.3 140.35 164.85 141.0 166.5 141.95 168.05 L143.0 170.0 M58.0 98.0 Q56.15 100.1 55.45 102.7 56.95 100.45 58.0 98.0 M80.0 217.0 L79.5 217.25 79.35 218.05 80.95 218.4 82.05 218.55 Q101.25 220.55 119.05 214.1 L124.95 211.9 Q129.4 210.25 133.0 208.0 134.7 209.3 134.15 213.0 133.65 216.35 134.7 219.1 L135.0 221.0 M80.0 215.0 L79.5 217.25 Q78.65 217.7 79.35 218.05 78.75 221.85 78.95 226.0 L79.0 227.0 M22.0 223.0 Q21.0 219.5 20.75 221.1 20.5 222.5 20.6 224.05 22.05 242.95 21.6 262.0 L20.95 273.0 Q19.75 285.4 20.4 298.0 20.5 299.5 21.0 301.0 M43.0 260.0 Q42.5 257.75 42.0 260.0 39.35 272.0 42.6 284.1 L44.3 290.95 Q48.9 310.65 63.3 324.65 65.75 327.05 69.0 327.3 L74.0 327.75 Q86.8 329.1 93.75 318.85 L96.3 315.2 98.5 311.7 100.4 308.2 101.85 305.9 103.0 304.0 112.4 312.55 Q114.0 314.0 116.05 314.85 129.6 320.3 141.8 311.7 149.95 305.95 156.3 298.25 170.75 280.7 176.75 258.95 L177.0 257.0 M269.7 201.9 L269.45 203.25 270.0 204.0 M299.0 242.0 Q289.0 248.6 276.95 245.2 L272.25 243.45 Q264.35 239.9 265.4 231.05 267.05 217.1 269.45 203.25 268.9 202.25 269.7 201.9 M195.0 192.0 Q191.8 194.75 192.6 201.05 193.0 204.0 192.7 206.95 190.6 226.4 189.9 246.0 189.45 258.1 194.5 269.25 195.5 271.5 196.1 273.95 L197.0 277.0" fill="none" stroke="#000000" stroke-linecap="round" stroke-linejoin="round" stroke-width="2.75"/>
  </g>
</svg>
